<?xml version="1.0" encoding="UTF-8" standalone="no"?>
<!DOCTYPE svg PUBLIC "-//W3C//DTD SVG 1.1//EN" "http://www.w3.org/Graphics/SVG/1.1/DTD/svg11.dtd">
<svg width="100%" height="100%" viewBox="0 0 500 500" version="1.1" xmlns="http://www.w3.org/2000/svg" xmlns:xlink="http://www.w3.org/1999/xlink" xml:space="preserve" xmlns:serif="http://www.serif.com/" style="fill-rule:evenodd;clip-rule:evenodd;stroke-linecap:round;">
    <g id="a96b771aa2">
        <g>
            <path d="M153.292,247.547L201.01,216.677L248.734,247.547C249.224,247.87 249.885,247.724 250.208,247.234C250.526,246.74 250.385,246.078 249.891,245.76L201.589,214.51C201.24,214.281 200.781,214.281 200.432,214.51L152.13,245.76C151.635,246.078 151.495,246.74 151.818,247.234C152.135,247.724 152.797,247.87 153.292,247.547Z" style="fill:white;"/>
        </g>
        <g>
            <path d="M212.807,222.99L221.589,217.307L266.703,246.906C267.198,247.229 267.859,247.094 268.182,246.599C268.505,246.109 268.365,245.448 267.875,245.125L222.177,215.146C221.823,214.917 221.365,214.911 221.01,215.141C221.01,215.141 217.125,217.656 211.651,221.198C211.156,221.516 211.016,222.177 211.333,222.672C211.656,223.167 212.318,223.307 212.807,222.99Z" style="fill:white;"/>
        </g>
        <path d="M179.208,229.823L179.208,221.771C179.208,221.188 178.734,220.708 178.146,220.708L169.266,220.708C168.677,220.708 168.203,221.188 168.203,221.771L168.203,235.943C168.203,236.526 168.677,237.005 169.266,237.005C169.854,237.005 170.328,236.526 170.328,235.943L170.328,222.833L177.083,222.833L177.083,229.823C177.083,230.406 177.563,230.88 178.146,230.88C178.734,230.88 179.208,230.406 179.208,229.823Z" style="fill:white;"/>
        <g transform="matrix(0.749885,-8.37e-16,8.37e-16,0.749885,267.305,245.405)">
            <path d="M0.67,0.668L135.364,0.668" style="fill:none;fill-rule:nonzero;stroke:white;stroke-width:1.33px;"/>
        </g>
        <g>
            <clipPath id="_clip1">
                <rect x="181.333" y="236.734" width="36" height="18"/>
            </clipPath>
            <g clip-path="url(#_clip1)">
                <path d="M216.281,295.734L182.849,295.734C182.307,295.734 181.865,295.292 181.865,294.75L181.865,254.432C181.865,244.672 189.807,236.734 199.568,236.734C209.328,236.734 217.266,244.672 217.266,254.432L217.266,294.75C217.266,295.292 216.823,295.734 216.281,295.734ZM183.833,293.766L215.297,293.766L215.297,254.432C215.297,245.755 208.24,238.698 199.568,238.698C190.891,238.698 183.833,245.755 183.833,254.432L183.833,293.766Z" style="fill:white;fill-rule:nonzero;"/>
            </g>
        </g>
        <g>
            <clipPath id="_clip2">
                <rect x="185.333" y="253.333" width="28" height="1.401"/>
            </clipPath>
            <g clip-path="url(#_clip2)">
                <path d="M212.349,295.734L186.781,295.734C186.24,295.734 185.797,295.292 185.797,294.75L185.797,254.432C185.797,253.891 186.24,253.448 186.781,253.448L212.349,253.448C212.891,253.448 213.333,253.891 213.333,254.432L213.333,294.75C213.333,295.292 212.891,295.734 212.349,295.734ZM187.766,293.766L211.365,293.766L211.365,255.417L187.766,255.417L187.766,293.766Z" style="fill:white;fill-rule:nonzero;"/>
            </g>
        </g>
        <g>
            <clipPath id="_clip3">
                <rect x="185.333" y="240" width="28" height="14.734"/>
            </clipPath>
            <g clip-path="url(#_clip3)">
                <path d="M212.349,255.417L186.781,255.417C186.24,255.417 185.797,254.974 185.797,254.432C185.797,246.844 191.974,240.667 199.568,240.667C207.156,240.667 213.333,246.844 213.333,254.432C213.333,254.974 212.891,255.417 212.349,255.417ZM187.807,253.448L211.323,253.448C210.823,247.401 205.74,242.63 199.568,242.63C193.391,242.63 188.307,247.401 187.807,253.448Z" style="fill:white;fill-rule:nonzero;"/>
            </g>
        </g>
        <g>
            <clipPath id="_clip4">
                <rect x="197.333" y="240" width="4" height="14.734"/>
            </clipPath>
            <g clip-path="url(#_clip4)">
                <path d="M199.568,255.417C199.021,255.417 198.583,254.974 198.583,254.432L198.583,241.651C198.583,241.104 199.021,240.667 199.568,240.667C200.109,240.667 200.547,241.104 200.547,241.651L200.547,254.432C200.547,254.974 200.109,255.417 199.568,255.417Z" style="fill:white;fill-rule:nonzero;"/>
            </g>
        </g>
        <g>
            <clipPath id="_clip5">
                <rect x="197.333" y="244" width="13.333" height="10.734"/>
            </clipPath>
            <g clip-path="url(#_clip5)">
                <path d="M199.568,255.417C199.313,255.417 199.063,255.318 198.87,255.13C198.484,254.745 198.484,254.12 198.87,253.74L207.719,244.885C208.104,244.505 208.729,244.505 209.109,244.885C209.495,245.271 209.495,245.896 209.109,246.276L200.26,255.13C200.068,255.318 199.818,255.417 199.568,255.417Z" style="fill:white;fill-rule:nonzero;"/>
            </g>
        </g>
        <g>
            <clipPath id="_clip6">
                <rect x="189.333" y="244" width="12" height="10.734"/>
            </clipPath>
            <g clip-path="url(#_clip6)">
                <path d="M199.568,255.417C199.313,255.417 199.063,255.318 198.87,255.13L190.021,246.276C189.635,245.896 189.635,245.271 190.021,244.885C190.406,244.505 191.026,244.505 191.411,244.885L200.26,253.74C200.646,254.12 200.646,254.745 200.26,255.13C200.068,255.318 199.818,255.417 199.568,255.417Z" style="fill:white;fill-rule:nonzero;"/>
            </g>
        </g>
        <g transform="matrix(1,0,0,1,140.874,288.949)">
            <g>
                <path d="M37.063,-3.646C34.906,-1.896 32.479,-0.677 29.771,0C27.063,0.677 24.323,1.021 21.563,1.021C19.063,1.021 16.635,0.667 14.292,-0.042C11.943,-0.76 9.875,-1.839 8.083,-3.271C6.292,-4.714 4.854,-6.531 3.771,-8.729C2.688,-10.922 2.146,-13.484 2.146,-16.417C2.146,-19.052 2.688,-21.448 3.771,-23.604C4.854,-25.771 6.292,-27.609 8.083,-29.125C9.875,-30.651 11.943,-31.823 14.292,-32.646C16.635,-33.464 19.063,-33.875 21.563,-33.875C22.755,-33.875 23.99,-33.797 25.271,-33.646C26.563,-33.49 27.844,-33.25 29.125,-32.917C30.417,-32.594 31.667,-32.193 32.875,-31.708C34.094,-31.234 35.234,-30.656 36.292,-29.979L34.708,-25.146C34.594,-24.839 34.464,-24.469 34.313,-24.042C34.156,-23.625 34.047,-23.417 33.979,-23.417C33.906,-23.417 33.813,-23.568 33.688,-23.875C33.573,-24.177 33.484,-24.469 33.417,-24.75C33.135,-25.875 32.729,-26.901 32.188,-27.833C31.646,-28.776 30.901,-29.604 29.958,-30.312C29.01,-31.021 27.854,-31.573 26.479,-31.979C25.115,-32.396 23.479,-32.604 21.563,-32.604C19.229,-32.63 17.255,-32.156 15.646,-31.187C14.047,-30.214 12.755,-28.958 11.771,-27.417C10.797,-25.875 10.094,-24.13 9.667,-22.187C9.25,-20.255 9.042,-18.333 9.042,-16.417C9.042,-14.5 9.281,-12.583 9.771,-10.667C10.271,-8.76 11.083,-7.042 12.208,-5.5C13.344,-3.958 14.844,-2.693 16.708,-1.708C18.568,-0.734 20.865,-0.25 23.604,-0.25C28.714,-0.25 32.417,-2.885 34.708,-8.167C34.844,-8.469 34.938,-8.729 34.979,-8.937C35.031,-9.146 35.13,-9.25 35.271,-9.25C35.365,-9.25 35.443,-9.187 35.5,-9.062C35.552,-8.937 35.63,-8.687 35.729,-8.312L37.063,-3.646Z" style="fill:white;fill-rule:nonzero;"/>
            </g>
        </g>
        <g transform="matrix(1,0,0,1,179.819,288.949)">
            <g>
                <path d="M39.375,0C39.375,0.094 39.094,0.146 38.542,0.146C38.094,0.146 37.693,0.135 37.333,0.125C36.984,0.109 36.615,0.089 36.229,0.063C35.854,0.047 35.422,0.031 34.938,0.021C34.464,0.005 33.875,0 33.167,0C32.443,0 31.839,0.005 31.354,0.021C30.88,0.031 30.458,0.047 30.083,0.063C29.708,0.089 29.344,0.109 29,0.125C28.667,0.135 28.255,0.146 27.771,0.146C27.229,0.146 26.958,0.094 26.958,0C26.958,-0.135 27.109,-0.276 27.417,-0.417C28.583,-1 29.333,-1.677 29.667,-2.458C30.01,-3.25 30.188,-4.276 30.188,-5.542L30.188,-16.687L10.625,-16.687L10.625,-5.542C10.625,-4.276 10.792,-3.25 11.125,-2.458C11.469,-1.677 12.229,-1 13.396,-0.417C13.698,-0.276 13.854,-0.135 13.854,0C13.854,0.094 13.583,0.146 13.042,0.146C12.594,0.146 12.193,0.135 11.833,0.125C11.469,0.109 11.104,0.089 10.729,0.063C10.354,0.047 9.922,0.031 9.438,0.021C8.964,0.005 8.365,0 7.646,0C6.922,0 6.318,0.005 5.833,0.021C5.359,0.031 4.938,0.047 4.563,0.063C4.188,0.089 3.823,0.109 3.479,0.125C3.146,0.135 2.734,0.146 2.25,0.146C1.708,0.146 1.438,0.094 1.438,0C1.438,-0.135 1.589,-0.276 1.896,-0.417C3.063,-1 3.813,-1.677 4.146,-2.458C4.49,-3.25 4.667,-4.276 4.667,-5.542L4.667,-28.333C4.667,-29.401 4.5,-30.318 4.167,-31.083C3.844,-31.844 3.276,-32.333 2.458,-32.542C2.125,-32.677 1.958,-32.781 1.958,-32.854C1.958,-32.99 2.214,-33.062 2.729,-33.062C2.922,-33.062 3.214,-33.047 3.604,-33.021C4.005,-33.005 4.438,-32.979 4.896,-32.937C5.365,-32.906 5.839,-32.885 6.313,-32.875C6.797,-32.859 7.24,-32.854 7.646,-32.854C8.063,-32.854 8.51,-32.859 9,-32.875C9.5,-32.885 9.979,-32.906 10.438,-32.937C10.906,-32.979 11.333,-33.005 11.708,-33.021C12.083,-33.047 12.375,-33.062 12.583,-33.062C13.094,-33.062 13.354,-32.99 13.354,-32.854C13.354,-32.781 13.177,-32.677 12.833,-32.542C12.01,-32.333 11.438,-31.844 11.104,-31.083C10.781,-30.318 10.625,-29.401 10.625,-28.333L10.625,-17.958L30.188,-17.958L30.188,-28.333C30.188,-29.401 30.021,-30.318 29.688,-31.083C29.365,-31.844 28.797,-32.333 27.979,-32.542C27.63,-32.677 27.458,-32.781 27.458,-32.854C27.458,-32.99 27.714,-33.062 28.229,-33.062C28.438,-33.062 28.734,-33.047 29.125,-33.021C29.526,-33.005 29.958,-32.979 30.417,-32.937C30.875,-32.906 31.339,-32.885 31.813,-32.875C32.297,-32.859 32.75,-32.854 33.167,-32.854C33.568,-32.854 34.021,-32.859 34.521,-32.875C35.021,-32.885 35.5,-32.906 35.958,-32.937C36.417,-32.979 36.833,-33.005 37.208,-33.021C37.594,-33.047 37.885,-33.062 38.083,-33.062C38.594,-33.062 38.854,-32.99 38.854,-32.854C38.854,-32.781 38.688,-32.677 38.354,-32.542C37.521,-32.333 36.943,-31.844 36.625,-31.083C36.302,-30.318 36.146,-29.401 36.146,-28.333L36.146,-5.542C36.146,-4.276 36.313,-3.25 36.646,-2.458C36.99,-1.677 37.75,-1 38.917,-0.417C39.219,-0.276 39.375,-0.135 39.375,0Z" style="fill:white;fill-rule:nonzero;"/>
            </g>
        </g>
        <g transform="matrix(1,0,0,1,220.661,288.949)">
            <g>
                <path d="M40.75,-16.417C40.75,-13.792 40.208,-11.396 39.125,-9.229C38.052,-7.073 36.615,-5.234 34.813,-3.708C33.021,-2.193 30.958,-1.026 28.625,-0.208C26.302,0.609 23.88,1.021 21.354,1.021C18.854,1.021 16.427,0.609 14.083,-0.208C11.75,-1.026 9.677,-2.193 7.875,-3.708C6.083,-5.234 4.646,-7.073 3.563,-9.229C2.49,-11.396 1.958,-13.792 1.958,-16.417C1.958,-19.052 2.49,-21.448 3.563,-23.604C4.646,-25.771 6.083,-27.609 7.875,-29.125C9.677,-30.651 11.75,-31.823 14.083,-32.646C16.427,-33.464 18.854,-33.875 21.354,-33.875C23.88,-33.875 26.302,-33.464 28.625,-32.646C30.958,-31.823 33.021,-30.651 34.813,-29.125C36.615,-27.609 38.052,-25.771 39.125,-23.604C40.208,-21.448 40.75,-19.052 40.75,-16.417ZM33.875,-16.417C33.875,-18.333 33.656,-20.25 33.229,-22.167C32.813,-24.083 32.109,-25.812 31.125,-27.354C30.151,-28.896 28.859,-30.151 27.25,-31.125C25.651,-32.109 23.688,-32.604 21.354,-32.604C19.021,-32.604 17.047,-32.109 15.438,-31.125C13.839,-30.151 12.547,-28.896 11.563,-27.354C10.589,-25.812 9.885,-24.083 9.458,-22.167C9.042,-20.25 8.833,-18.333 8.833,-16.417C8.833,-14.5 9.042,-12.583 9.458,-10.667C9.885,-8.76 10.589,-7.042 11.563,-5.5C12.547,-3.958 13.839,-2.693 15.438,-1.708C17.047,-0.734 19.021,-0.25 21.354,-0.25C23.688,-0.25 25.651,-0.734 27.25,-1.708C28.859,-2.693 30.151,-3.958 31.125,-5.5C32.109,-7.042 32.813,-8.76 33.229,-10.667C33.656,-12.583 33.875,-14.5 33.875,-16.417Z" style="fill:white;fill-rule:nonzero;"/>
            </g>
        </g>
        <g transform="matrix(1,0,0,1,263.402,288.949)">
            <g>
                <path d="M38.604,-16.521C38.604,-14.714 38.234,-12.833 37.5,-10.875C36.76,-8.927 35.651,-7.151 34.167,-5.542C32.677,-3.927 30.818,-2.604 28.583,-1.562C26.359,-0.521 23.74,0 20.729,0L1.854,0C1.063,0 0.667,-0.047 0.667,-0.146C0.667,-0.214 0.75,-0.281 0.917,-0.354C1.094,-0.422 1.318,-0.49 1.583,-0.562C2.469,-0.839 3.198,-1.427 3.771,-2.333C4.339,-3.234 4.625,-4.667 4.625,-6.625L4.625,-27.104C4.625,-28.714 4.464,-29.839 4.146,-30.479C3.839,-31.13 3.333,-31.651 2.625,-32.042C2.375,-32.135 2.167,-32.229 2,-32.312C1.833,-32.396 1.75,-32.505 1.75,-32.646C1.75,-32.714 1.823,-32.76 1.979,-32.792C2.13,-32.833 2.292,-32.854 2.458,-32.854L19.5,-32.854C22.234,-32.854 24.771,-32.464 27.104,-31.687C29.438,-30.922 31.443,-29.818 33.125,-28.375C34.818,-26.943 36.151,-25.229 37.125,-23.229C38.109,-21.229 38.604,-18.99 38.604,-16.521ZM31.729,-17.25C31.729,-26.792 27.24,-31.562 18.271,-31.562L10.583,-31.562L10.583,-5.333C10.583,-3.969 11,-2.958 11.833,-2.292C12.667,-1.625 14.26,-1.292 16.625,-1.292C19.469,-1.292 21.859,-1.656 23.792,-2.396C25.719,-3.13 27.276,-4.187 28.458,-5.562C29.635,-6.948 30.479,-8.625 30.979,-10.583C31.479,-12.552 31.729,-14.776 31.729,-17.25Z" style="fill:white;fill-rule:nonzero;"/>
            </g>
        </g>
        <g transform="matrix(1,0,0,1,304.245,288.949)">
            <g>
                <path d="M35.833,-7.812C35.833,-7.74 35.818,-7.677 35.792,-7.625C35.776,-7.568 35.755,-7.49 35.729,-7.396L33.479,0L2.208,0C1.625,0 1.219,-0.01 1,-0.042C0.776,-0.083 0.667,-0.135 0.667,-0.208C0.667,-0.276 0.859,-0.375 1.25,-0.5C1.651,-0.635 1.938,-0.797 2.104,-0.979C2.589,-1.354 2.969,-1.734 3.25,-2.125C3.542,-2.526 3.771,-3.005 3.938,-3.562C4.115,-4.13 4.229,-4.818 4.271,-5.625C4.323,-6.427 4.354,-7.406 4.354,-8.562L4.354,-26.021C4.354,-27.698 4.234,-29.062 4,-30.104C3.76,-31.146 3.13,-31.802 2.104,-32.083C1.938,-32.151 1.75,-32.229 1.542,-32.312C1.333,-32.396 1.229,-32.469 1.229,-32.542C1.229,-32.651 1.297,-32.729 1.438,-32.771C1.573,-32.823 1.833,-32.854 2.208,-32.854L31.208,-32.854L32.604,-28.021C32.672,-27.755 32.76,-27.448 32.875,-27.104C33,-26.755 33.063,-26.427 33.063,-26.125C33.063,-25.844 32.969,-25.708 32.792,-25.708C32.552,-25.708 32.354,-25.865 32.188,-26.187C31.646,-27.073 30.917,-27.854 30,-28.521C29.094,-29.187 28.089,-29.75 26.979,-30.208C25.865,-30.667 24.688,-31.005 23.438,-31.229C22.188,-31.448 20.964,-31.562 19.771,-31.562L10.313,-31.562L10.313,-17.958L19.813,-17.958C20.74,-17.958 21.63,-18.062 22.479,-18.271C23.339,-18.479 24.115,-18.75 24.813,-19.083C25.521,-19.427 26.109,-19.839 26.583,-20.312C27.068,-20.797 27.396,-21.297 27.563,-21.812C27.672,-22.115 27.813,-22.271 27.979,-22.271C28.115,-22.271 28.188,-22.01 28.188,-21.5L28.188,-13.042C28.188,-12.594 28.167,-12.302 28.125,-12.167C28.094,-12.026 28.047,-11.958 27.979,-11.958C27.865,-11.958 27.781,-12.031 27.729,-12.187C27.688,-12.339 27.63,-12.505 27.563,-12.687C27.188,-13.646 26.667,-14.385 26,-14.917C25.333,-15.443 24.568,-15.833 23.708,-16.083C22.859,-16.344 21.964,-16.51 21.021,-16.583C20.073,-16.651 19.156,-16.687 18.271,-16.687L10.313,-16.687L10.313,-5.854C10.313,-3.964 10.672,-2.729 11.396,-2.146C12.115,-1.573 13.344,-1.292 15.083,-1.292L20.896,-1.292C21.99,-1.292 23.146,-1.427 24.354,-1.708C25.573,-2 26.781,-2.396 27.979,-2.896C29.172,-3.396 30.318,-3.984 31.417,-4.667C32.51,-5.359 33.469,-6.094 34.292,-6.875C34.594,-7.151 34.885,-7.401 35.167,-7.625C35.443,-7.844 35.609,-7.958 35.667,-7.958C35.776,-7.958 35.833,-7.906 35.833,-7.812Z" style="fill:white;fill-rule:nonzero;"/>
            </g>
        </g>
        <g transform="matrix(1,0,0,1,341.29,288.949)">
            <g>
                <path d="M38.458,-32.854C38.458,-32.714 38.167,-32.49 37.583,-32.187C36.958,-31.88 36.448,-31.437 36.063,-30.854C35.672,-30.271 35.365,-29.589 35.146,-28.812C34.922,-28.047 34.76,-27.229 34.667,-26.354C34.583,-25.479 34.542,-24.594 34.542,-23.708L34.542,0.354C34.542,0.531 34.505,0.708 34.438,0.875C34.365,1.042 34.281,1.125 34.188,1.125C34.021,1.125 33.844,1.026 33.667,0.833C33.5,0.651 33.313,0.443 33.104,0.208L6.063,-29.312L6.063,-9.146C6.063,-8.255 6.104,-7.38 6.188,-6.521C6.271,-5.656 6.458,-4.839 6.75,-4.062C7.042,-3.297 7.443,-2.609 7.958,-2C8.469,-1.385 9.135,-0.896 9.958,-0.521C10.125,-0.448 10.271,-0.396 10.396,-0.354C10.521,-0.323 10.583,-0.276 10.583,-0.208C10.583,-0.135 10.5,-0.083 10.333,-0.042C10.177,-0.01 9.88,0 9.438,0L0.813,0C0.505,0 0.354,-0.031 0.354,-0.104C0.354,-0.24 0.469,-0.312 0.708,-0.312C1.568,-0.714 2.26,-1.24 2.792,-1.896C3.318,-2.547 3.729,-3.26 4.021,-4.042C4.313,-4.833 4.505,-5.667 4.604,-6.542C4.714,-7.417 4.771,-8.281 4.771,-9.146L4.771,-23.521C4.771,-25.156 4.708,-26.5 4.583,-27.542C4.469,-28.583 4.313,-29.401 4.104,-30C3.896,-30.594 3.635,-31.042 3.333,-31.333C3.026,-31.625 2.688,-31.859 2.313,-32.042C1.698,-32.302 1.396,-32.49 1.396,-32.604C1.396,-32.771 1.646,-32.854 2.146,-32.854L10.688,-32.854L33.271,-9.812L33.271,-22.083C33.271,-23.276 33.219,-24.406 33.125,-25.479C33.042,-26.562 32.854,-27.547 32.563,-28.437C32.271,-29.323 31.865,-30.109 31.354,-30.792C30.854,-31.484 30.151,-32.021 29.25,-32.396C28.984,-32.49 28.854,-32.625 28.854,-32.792C28.854,-32.969 29.073,-33.062 29.521,-33.062L37.938,-33.062C38.281,-33.062 38.458,-32.99 38.458,-32.854Z" style="fill:white;fill-rule:nonzero;"/>
            </g>
        </g>
        <g transform="matrix(1,0,0,1,145.162,319.163)">
            <g>
                <path d="M1.938,0L1.938,-16.979L7.271,-16.979C8.005,-16.979 8.656,-16.802 9.229,-16.458C9.813,-16.109 10.276,-15.646 10.625,-15.062C10.969,-14.479 11.146,-13.823 11.146,-13.104L11.146,-12.062C11.146,-11.422 11,-10.839 10.708,-10.312C10.427,-9.781 10.052,-9.359 9.583,-9.042C10.193,-8.75 10.688,-8.312 11.063,-7.729C11.448,-7.146 11.646,-6.484 11.646,-5.75L11.646,-3.875C11.646,-3.167 11.469,-2.51 11.125,-1.917C10.776,-1.333 10.313,-0.865 9.729,-0.521C9.146,-0.172 8.484,0 7.75,0L1.938,0ZM3.396,-9.625L7.271,-9.625C7.948,-9.625 8.526,-9.859 9,-10.333C9.469,-10.802 9.708,-11.38 9.708,-12.062L9.708,-13.104C9.708,-13.771 9.469,-14.339 9,-14.812C8.526,-15.281 7.948,-15.521 7.271,-15.521L3.396,-15.521L3.396,-9.625ZM3.396,-1.458L7.75,-1.458C8.427,-1.458 9.005,-1.687 9.479,-2.146C9.948,-2.615 10.188,-3.193 10.188,-3.875L10.188,-5.75C10.188,-6.427 9.948,-7 9.479,-7.458C9.005,-7.927 8.427,-8.167 7.75,-8.167L3.396,-8.167L3.396,-1.458Z" style="fill:white;fill-rule:nonzero;"/>
            </g>
        </g>
        <g transform="matrix(1,0,0,1,158.74,319.163)">
            <g>
                <path d="M1.938,0L1.938,-12.437L3.396,-12.437L3.396,-10.083L6.917,-12.437L7.75,-12.437C8.469,-12.437 9.125,-12.26 9.708,-11.917C10.302,-11.568 10.776,-11.094 11.125,-10.5C11.469,-9.917 11.646,-9.271 11.646,-8.562L11.646,-7.833L10.188,-7.833L10.188,-8.562C10.188,-9.229 9.943,-9.797 9.458,-10.271C8.984,-10.74 8.417,-10.979 7.75,-10.979L7.375,-10.979L3.396,-8.333L3.396,0L1.938,0Z" style="fill:white;fill-rule:nonzero;"/>
            </g>
        </g>
        <g transform="matrix(1,0,0,1,172.319,319.163)">
            <g>
                <path d="M5.813,0C5.104,0 4.448,-0.172 3.854,-0.521C3.271,-0.88 2.802,-1.354 2.458,-1.937C2.109,-2.531 1.938,-3.187 1.938,-3.896L1.938,-8.562C1.938,-9.271 2.109,-9.917 2.458,-10.5C2.802,-11.094 3.271,-11.568 3.854,-11.917C4.448,-12.26 5.104,-12.437 5.813,-12.437L7.75,-12.437C8.484,-12.437 9.146,-12.26 9.729,-11.917C10.313,-11.568 10.776,-11.104 11.125,-10.521C11.469,-9.937 11.646,-9.281 11.646,-8.562L11.646,-3.896C11.646,-3.187 11.469,-2.531 11.125,-1.937C10.776,-1.339 10.302,-0.865 9.708,-0.521C9.125,-0.172 8.469,0 7.75,0L5.813,0ZM5.813,-1.479L7.75,-1.479C8.417,-1.479 8.984,-1.714 9.458,-2.187C9.943,-2.672 10.188,-3.24 10.188,-3.896L10.188,-8.562C10.188,-9.24 9.948,-9.812 9.479,-10.271C9.005,-10.74 8.427,-10.979 7.75,-10.979L5.813,-10.979C5.13,-10.979 4.552,-10.74 4.083,-10.271C3.625,-9.812 3.396,-9.24 3.396,-8.562L3.396,-3.896C3.396,-3.24 3.63,-2.672 4.104,-2.187C4.589,-1.714 5.156,-1.479 5.813,-1.479Z" style="fill:white;fill-rule:nonzero;"/>
            </g>
        </g>
        <g transform="matrix(1,0,0,1,185.898,319.163)">
            <g>
                <path d="M9.583,0C8.875,0 8.219,-0.172 7.625,-0.521C7.042,-0.865 6.573,-1.333 6.229,-1.917C5.88,-2.51 5.708,-3.167 5.708,-3.875L5.708,-10.979L1.938,-10.979L1.938,-12.437L5.708,-12.437L5.708,-15.271L7.146,-15.271L7.146,-12.437L11.646,-12.437L11.646,-10.979L7.146,-10.979L7.146,-3.875C7.146,-3.193 7.38,-2.615 7.854,-2.146C8.323,-1.687 8.901,-1.458 9.583,-1.458L11.646,-1.458L11.646,0L9.583,0Z" style="fill:white;fill-rule:nonzero;"/>
            </g>
        </g>
        <g transform="matrix(1,0,0,1,199.477,319.163)">
            <g>
                <path d="M1.938,0L1.938,-17.208L3.396,-17.208L3.396,-10.75L5.875,-12.437L7.75,-12.437C8.469,-12.437 9.125,-12.26 9.708,-11.917C10.302,-11.568 10.776,-11.094 11.125,-10.5C11.469,-9.917 11.646,-9.271 11.646,-8.562L11.646,0L10.188,0L10.188,-8.562C10.188,-9.229 9.943,-9.797 9.458,-10.271C8.984,-10.74 8.417,-10.979 7.75,-10.979L6.333,-10.979L3.396,-8.979L3.396,0L1.938,0Z" style="fill:white;fill-rule:nonzero;"/>
            </g>
        </g>
        <g transform="matrix(1,0,0,1,213.056,319.163)">
            <g>
                <path d="M5.813,0C5.104,0 4.448,-0.172 3.854,-0.521C3.271,-0.88 2.802,-1.354 2.458,-1.937C2.109,-2.531 1.938,-3.187 1.938,-3.896L1.938,-8.562C1.938,-9.271 2.109,-9.917 2.458,-10.5C2.802,-11.094 3.271,-11.568 3.854,-11.917C4.448,-12.26 5.104,-12.437 5.813,-12.437L7.75,-12.437C8.484,-12.437 9.146,-12.26 9.729,-11.917C10.313,-11.568 10.776,-11.104 11.125,-10.521C11.469,-9.937 11.646,-9.281 11.646,-8.562L11.646,-6.396L3.396,-6.396L3.396,-3.896C3.396,-3.24 3.63,-2.672 4.104,-2.187C4.589,-1.714 5.156,-1.479 5.813,-1.479L7.75,-1.479C8.417,-1.479 8.984,-1.714 9.458,-2.187C9.943,-2.672 10.188,-3.24 10.188,-3.896L10.188,-4.312L11.646,-4.312L11.646,-3.896C11.646,-3.187 11.469,-2.531 11.125,-1.937C10.776,-1.339 10.302,-0.865 9.708,-0.521C9.125,-0.172 8.469,0 7.75,0L5.813,0ZM3.396,-7.208L10.188,-7.208L10.188,-8.562C10.188,-9.24 9.948,-9.812 9.479,-10.271C9.005,-10.74 8.427,-10.979 7.75,-10.979L5.813,-10.979C5.13,-10.979 4.552,-10.74 4.083,-10.271C3.625,-9.812 3.396,-9.24 3.396,-8.562L3.396,-7.208Z" style="fill:white;fill-rule:nonzero;"/>
            </g>
        </g>
        <g transform="matrix(1,0,0,1,226.635,319.163)">
            <g>
                <path d="M1.938,0L1.938,-12.437L3.396,-12.437L3.396,-10.083L6.917,-12.437L7.75,-12.437C8.469,-12.437 9.125,-12.26 9.708,-11.917C10.302,-11.568 10.776,-11.094 11.125,-10.5C11.469,-9.917 11.646,-9.271 11.646,-8.562L11.646,-7.833L10.188,-7.833L10.188,-8.562C10.188,-9.229 9.943,-9.797 9.458,-10.271C8.984,-10.74 8.417,-10.979 7.75,-10.979L7.375,-10.979L3.396,-8.333L3.396,0L1.938,0Z" style="fill:white;fill-rule:nonzero;"/>
            </g>
        </g>
        <g transform="matrix(1,0,0,1,240.213,319.163)">
            <g>
                <path d="M5.729,0C5.047,0 4.417,-0.135 3.833,-0.417C3.26,-0.708 2.802,-1.083 2.458,-1.542C2.109,-2.01 1.938,-2.531 1.938,-3.104L1.938,-4L3.396,-4L3.396,-3.104C3.396,-2.672 3.615,-2.292 4.063,-1.958C4.521,-1.625 5.073,-1.458 5.729,-1.458L7.938,-1.458C8.646,-1.458 9.193,-1.609 9.583,-1.917C9.984,-2.219 10.188,-2.672 10.188,-3.271C10.188,-3.823 10.042,-4.26 9.75,-4.583C9.458,-4.901 9.068,-5.151 8.583,-5.333C8.109,-5.51 7.589,-5.656 7.021,-5.771C6.448,-5.88 5.88,-6.005 5.313,-6.146C4.74,-6.281 4.219,-6.469 3.75,-6.708C3.276,-6.943 2.896,-7.271 2.604,-7.687C2.313,-8.104 2.167,-8.651 2.167,-9.333C2.167,-10.276 2.5,-11.026 3.167,-11.583C3.844,-12.151 4.729,-12.437 5.813,-12.437L7.604,-12.437C8.271,-12.437 8.865,-12.292 9.396,-12C9.938,-11.719 10.365,-11.344 10.688,-10.875C11.021,-10.417 11.188,-9.896 11.188,-9.312L11.188,-8.771L9.729,-8.771L9.729,-9.312C9.729,-9.781 9.526,-10.177 9.125,-10.5C8.719,-10.818 8.214,-10.979 7.604,-10.979L5.813,-10.979C5.115,-10.979 4.573,-10.818 4.188,-10.5C3.797,-10.193 3.604,-9.781 3.604,-9.271C3.604,-8.823 3.75,-8.479 4.042,-8.229C4.333,-7.979 4.714,-7.792 5.188,-7.667C5.672,-7.542 6.198,-7.422 6.771,-7.312C7.354,-7.198 7.922,-7.068 8.479,-6.917C9.047,-6.776 9.568,-6.568 10.042,-6.292C10.526,-6.01 10.917,-5.63 11.208,-5.146C11.5,-4.656 11.646,-4.026 11.646,-3.25C11.646,-2.26 11.313,-1.469 10.646,-0.875C9.979,-0.292 9.073,0 7.938,0L5.729,0Z" style="fill:white;fill-rule:nonzero;"/>
            </g>
        </g>
        <g transform="matrix(1,0,0,1,267.371,319.163)">
            <g>
                <path d="M5.958,0C5.234,0 4.568,-0.177 3.958,-0.542C3.344,-0.901 2.854,-1.385 2.479,-2C2.115,-2.609 1.938,-3.281 1.938,-4.021L1.938,-5.062L3.396,-5.062L3.396,-4.021C3.396,-3.312 3.646,-2.708 4.146,-2.208C4.646,-1.708 5.25,-1.458 5.958,-1.458L7.583,-1.458C8.344,-1.458 8.969,-1.677 9.458,-2.125C9.943,-2.568 10.188,-3.125 10.188,-3.792C10.188,-4.417 9.99,-4.99 9.604,-5.521C9.214,-6.047 8.714,-6.542 8.104,-7C7.505,-7.469 6.865,-7.943 6.188,-8.417C5.505,-8.885 4.859,-9.375 4.25,-9.875C3.651,-10.375 3.156,-10.917 2.771,-11.5C2.38,-12.083 2.188,-12.729 2.188,-13.437C2.188,-14.49 2.563,-15.344 3.313,-16C4.063,-16.651 5.026,-16.979 6.208,-16.979L7.354,-16.979C8.089,-16.979 8.76,-16.792 9.375,-16.417C10,-16.052 10.49,-15.568 10.854,-14.958C11.214,-14.359 11.396,-13.693 11.396,-12.958L11.396,-12.292L9.938,-12.292L9.938,-12.958C9.938,-13.667 9.677,-14.271 9.167,-14.771C8.667,-15.271 8.063,-15.521 7.354,-15.521L6.208,-15.521C5.417,-15.521 4.792,-15.323 4.333,-14.937C3.875,-14.562 3.646,-14.062 3.646,-13.437C3.646,-12.948 3.833,-12.479 4.208,-12.021C4.594,-11.573 5.094,-11.13 5.708,-10.687C6.318,-10.24 6.964,-9.776 7.646,-9.292C8.323,-8.818 8.964,-8.302 9.563,-7.75C10.172,-7.208 10.672,-6.609 11.063,-5.958C11.448,-5.302 11.646,-4.583 11.646,-3.792C11.646,-3.068 11.464,-2.422 11.104,-1.854C10.755,-1.281 10.276,-0.833 9.667,-0.5C9.052,-0.167 8.359,0 7.583,0L5.958,0Z" style="fill:white;fill-rule:nonzero;"/>
            </g>
        </g>
        <g transform="matrix(1,0,0,1,280.95,319.163)">
            <g>
                <path d="M5.813,0C5.104,0 4.448,-0.172 3.854,-0.521C3.271,-0.88 2.802,-1.354 2.458,-1.937C2.109,-2.531 1.938,-3.187 1.938,-3.896L1.938,-8.562C1.938,-9.271 2.109,-9.917 2.458,-10.5C2.802,-11.094 3.271,-11.568 3.854,-11.917C4.448,-12.26 5.104,-12.437 5.813,-12.437L7.75,-12.437C8.484,-12.437 9.146,-12.26 9.729,-11.917C10.313,-11.568 10.776,-11.104 11.125,-10.521C11.469,-9.937 11.646,-9.281 11.646,-8.562L11.646,-6.396L3.396,-6.396L3.396,-3.896C3.396,-3.24 3.63,-2.672 4.104,-2.187C4.589,-1.714 5.156,-1.479 5.813,-1.479L7.75,-1.479C8.417,-1.479 8.984,-1.714 9.458,-2.187C9.943,-2.672 10.188,-3.24 10.188,-3.896L10.188,-4.312L11.646,-4.312L11.646,-3.896C11.646,-3.187 11.469,-2.531 11.125,-1.937C10.776,-1.339 10.302,-0.865 9.708,-0.521C9.125,-0.172 8.469,0 7.75,0L5.813,0ZM3.396,-7.208L10.188,-7.208L10.188,-8.562C10.188,-9.24 9.948,-9.812 9.479,-10.271C9.005,-10.74 8.427,-10.979 7.75,-10.979L5.813,-10.979C5.13,-10.979 4.552,-10.74 4.083,-10.271C3.625,-9.812 3.396,-9.24 3.396,-8.562L3.396,-7.208Z" style="fill:white;fill-rule:nonzero;"/>
            </g>
        </g>
        <g transform="matrix(1,0,0,1,294.529,319.163)">
            <g>
                <path d="M1.938,0L1.938,-12.437L3.396,-12.437L3.396,-10.083L6.917,-12.437L7.75,-12.437C8.469,-12.437 9.125,-12.26 9.708,-11.917C10.302,-11.568 10.776,-11.094 11.125,-10.5C11.469,-9.917 11.646,-9.271 11.646,-8.562L11.646,-7.833L10.188,-7.833L10.188,-8.562C10.188,-9.229 9.943,-9.797 9.458,-10.271C8.984,-10.74 8.417,-10.979 7.75,-10.979L7.375,-10.979L3.396,-8.333L3.396,0L1.938,0Z" style="fill:white;fill-rule:nonzero;"/>
            </g>
        </g>
        <g transform="matrix(1,0,0,1,308.107,319.163)">
            <g>
                <path d="M5.875,0L1.938,-7.083L1.938,-12.437L3.396,-12.437L3.396,-7.5L6.542,-1.687L7.042,-1.687L10.188,-7.5L10.188,-12.437L11.646,-12.437L11.646,-7.083L7.708,0L5.875,0Z" style="fill:white;fill-rule:nonzero;"/>
            </g>
        </g>
        <g transform="matrix(1,0,0,1,321.686,319.163)">
            <g>
                <path d="M5.458,-14.958L5.458,-16.729L7.396,-16.729L7.396,-14.958L5.458,-14.958ZM1.938,0L1.938,-1.458L5.938,-1.458L5.938,-10.979L1.938,-10.979L1.938,-12.437L7.396,-12.437L7.396,-1.458L11.646,-1.458L11.646,0L1.938,0Z" style="fill:white;fill-rule:nonzero;"/>
            </g>
        </g>
        <g transform="matrix(1,0,0,1,335.265,319.163)">
            <g>
                <path d="M5.813,0C5.104,0 4.448,-0.172 3.854,-0.521C3.271,-0.88 2.802,-1.354 2.458,-1.937C2.109,-2.531 1.938,-3.187 1.938,-3.896L1.938,-8.562C1.938,-9.271 2.109,-9.917 2.458,-10.5C2.802,-11.094 3.271,-11.568 3.854,-11.917C4.448,-12.26 5.104,-12.437 5.813,-12.437L7.75,-12.437C8.484,-12.437 9.146,-12.26 9.729,-11.917C10.313,-11.568 10.776,-11.104 11.125,-10.521C11.469,-9.937 11.646,-9.281 11.646,-8.562L11.646,-8.167L10.188,-8.167L10.188,-8.562C10.188,-9.24 9.948,-9.812 9.479,-10.271C9.005,-10.74 8.427,-10.979 7.75,-10.979L5.813,-10.979C5.13,-10.979 4.552,-10.74 4.083,-10.271C3.625,-9.812 3.396,-9.24 3.396,-8.562L3.396,-3.896C3.396,-3.24 3.63,-2.672 4.104,-2.187C4.589,-1.714 5.156,-1.479 5.813,-1.479L7.75,-1.479C8.417,-1.479 8.984,-1.714 9.458,-2.187C9.943,-2.672 10.188,-3.24 10.188,-3.896L10.188,-4.312L11.646,-4.312L11.646,-3.896C11.646,-3.187 11.469,-2.531 11.125,-1.937C10.776,-1.339 10.302,-0.865 9.708,-0.521C9.125,-0.172 8.469,0 7.75,0L5.813,0Z" style="fill:white;fill-rule:nonzero;"/>
            </g>
        </g>
        <g transform="matrix(1,0,0,1,348.844,319.163)">
            <g>
                <path d="M5.813,0C5.104,0 4.448,-0.172 3.854,-0.521C3.271,-0.88 2.802,-1.354 2.458,-1.937C2.109,-2.531 1.938,-3.187 1.938,-3.896L1.938,-8.562C1.938,-9.271 2.109,-9.917 2.458,-10.5C2.802,-11.094 3.271,-11.568 3.854,-11.917C4.448,-12.26 5.104,-12.437 5.813,-12.437L7.75,-12.437C8.484,-12.437 9.146,-12.26 9.729,-11.917C10.313,-11.568 10.776,-11.104 11.125,-10.521C11.469,-9.937 11.646,-9.281 11.646,-8.562L11.646,-6.396L3.396,-6.396L3.396,-3.896C3.396,-3.24 3.63,-2.672 4.104,-2.187C4.589,-1.714 5.156,-1.479 5.813,-1.479L7.75,-1.479C8.417,-1.479 8.984,-1.714 9.458,-2.187C9.943,-2.672 10.188,-3.24 10.188,-3.896L10.188,-4.312L11.646,-4.312L11.646,-3.896C11.646,-3.187 11.469,-2.531 11.125,-1.937C10.776,-1.339 10.302,-0.865 9.708,-0.521C9.125,-0.172 8.469,0 7.75,0L5.813,0ZM3.396,-7.208L10.188,-7.208L10.188,-8.562C10.188,-9.24 9.948,-9.812 9.479,-10.271C9.005,-10.74 8.427,-10.979 7.75,-10.979L5.813,-10.979C5.13,-10.979 4.552,-10.74 4.083,-10.271C3.625,-9.812 3.396,-9.24 3.396,-8.562L3.396,-7.208Z" style="fill:white;fill-rule:nonzero;"/>
            </g>
        </g>
        <g transform="matrix(1,0,0,1,362.423,319.163)">
            <g>
                <path d="M5.729,0C5.047,0 4.417,-0.135 3.833,-0.417C3.26,-0.708 2.802,-1.083 2.458,-1.542C2.109,-2.01 1.938,-2.531 1.938,-3.104L1.938,-4L3.396,-4L3.396,-3.104C3.396,-2.672 3.615,-2.292 4.063,-1.958C4.521,-1.625 5.073,-1.458 5.729,-1.458L7.938,-1.458C8.646,-1.458 9.193,-1.609 9.583,-1.917C9.984,-2.219 10.188,-2.672 10.188,-3.271C10.188,-3.823 10.042,-4.26 9.75,-4.583C9.458,-4.901 9.068,-5.151 8.583,-5.333C8.109,-5.51 7.589,-5.656 7.021,-5.771C6.448,-5.88 5.88,-6.005 5.313,-6.146C4.74,-6.281 4.219,-6.469 3.75,-6.708C3.276,-6.943 2.896,-7.271 2.604,-7.687C2.313,-8.104 2.167,-8.651 2.167,-9.333C2.167,-10.276 2.5,-11.026 3.167,-11.583C3.844,-12.151 4.729,-12.437 5.813,-12.437L7.604,-12.437C8.271,-12.437 8.865,-12.292 9.396,-12C9.938,-11.719 10.365,-11.344 10.688,-10.875C11.021,-10.417 11.188,-9.896 11.188,-9.312L11.188,-8.771L9.729,-8.771L9.729,-9.312C9.729,-9.781 9.526,-10.177 9.125,-10.5C8.719,-10.818 8.214,-10.979 7.604,-10.979L5.813,-10.979C5.115,-10.979 4.573,-10.818 4.188,-10.5C3.797,-10.193 3.604,-9.781 3.604,-9.271C3.604,-8.823 3.75,-8.479 4.042,-8.229C4.333,-7.979 4.714,-7.792 5.188,-7.667C5.672,-7.542 6.198,-7.422 6.771,-7.312C7.354,-7.198 7.922,-7.068 8.479,-6.917C9.047,-6.776 9.568,-6.568 10.042,-6.292C10.526,-6.01 10.917,-5.63 11.208,-5.146C11.5,-4.656 11.646,-4.026 11.646,-3.25C11.646,-2.26 11.313,-1.469 10.646,-0.875C9.979,-0.292 9.073,0 7.938,0L5.729,0Z" style="fill:white;fill-rule:nonzero;"/>
            </g>
        </g>
    </g>
</svg>
