<svg xmlns="http://www.w3.org/2000/svg" version="1.1" xmlns:xlink="http://www.w3.org/1999/xlink" xmlns:svgjs="http://svgjs.dev/svgjs" width="100%" height="100%" viewBox="0 0 1000 600"><rect width="1000" height="600" x="0" y="0" fill="#fff748"/><g><circle r="166.66666666666666" cx="354.1898752848307" cy="376.4121526913723" fill="#3c1a5b" transform="matrix(0.6665839629933116,0,0,0.6665839629933114,0,49.089696809183195)"/><path d="M363.4129322901201 424.12636675559213L363.4129322901201 424.12636675559213Q370.80223674728364 424.12636675559213 374.97129957330975 422.60250241228596Q379.16911455675677 421.0786380689799 381.4980393078472 418.8647219475729Q383.8269640589376 416.650805826166 385.5520935041898 414.40813754733813L385.5520935041898 414.40813754733813Q387.1622143197585 412.3954865278772 388.2260441443307 411.38916101814675Q389.2898739689029 410.3828355084164 391.2162685161012 409.95155314710337L391.2162685161012 409.95155314710337Q392.8263893316699 409.4627664709485 396.4204090092786 409.31900568384424Q400.0144286868873 409.146492739319 403.57969620707513 409.146492739319Q407.1737158846838 409.146492739319 408.58257159830646 409.3477578412651L408.58257159830646 409.3477578412651Q410.7102312474508 409.4627664709485 411.51529165523516 410.1815704064703L411.51529165523516 410.1815704064703Q412.3203520630195 410.87162218457115 412.5503693223865 413.2005469356616L412.5503693223865 413.2005469356616Q412.8378908965952 416.42078856679905 412.89539521143695 420.8773729670338Q412.95289952627866 425.33395736726857 412.75163442433256 428.55419899840604L412.75163442433256 428.55419899840604Q412.6366257946491 429.58927666555735 412.37785637786124 430.2793284436582Q412.11908696107344 430.99813237918 411.31402655328907 432.4069880928025L411.31402655328907 432.4069880928025Q410.30770104355867 434.01710890837126 407.3749809866299 437.09358975240434Q404.4422609297012 440.1988227538583 398.7780859177899 443.47656869983734Q393.14266306329944 446.7543146458165 384.1719899479881 449.08323939690695Q375.2300689900976 451.4121641479975 362.20534167844363 451.4121641479975L362.20534167844363 451.4121641479975Q348.2605453293218 451.4121641479975 336.12713489771477 447.8181444703887Q323.9937244661078 444.22412479278 314.8505384062712 435.7422383536234Q305.67860018901376 427.2603519144669 300.5894683255198 412.7980167317694Q295.471584304605 398.335681549072 295.471584304605 376.71405916857793L295.471584304605 376.71405916857793Q295.471584304605 352.64850340731005 303.80970995665723 335.82849131610124Q312.14783560870944 318.9797270674716 327.53023982887476 310.2103190541063Q342.88389189161916 301.4121588833202 363.9017189662749 301.4121588833202L363.9017189662749 301.4121588833202Q378.68032788060196 301.4121588833202 387.62224883849245 304.4311354125115Q396.56416979638294 307.4788640991237 401.2220192985638 311.5616704528872Q405.85111664332385 315.6444768066507 407.7775111905221 318.6922054932629L407.7775111905221 318.6922054932629Q408.49631512604384 319.8135396326768 408.78383670025255 320.647352197882Q409.1001104318821 321.5099169205081 409.18636690414473 323.35005499544377L409.18636690414473 323.35005499544377Q409.5026406357743 325.7652362187968 409.35887984867 330.4230857209777Q409.18636690414473 335.0521830657377 408.58257159830646 338.5886984285047L408.58257159830646 338.5886984285047Q408.1800413944143 340.83136670733256 407.28872451436735 341.5214184854334L407.28872451436735 341.5214184854334Q406.88619431047516 341.9239486893256 405.85111664332385 342.2402224209552Q404.8447911335934 342.5564961525847 402.8321401141325 342.5564961525847L402.8321401141325 342.5564961525847Q399.6118984829951 342.5564961525847 395.5578442866525 342.2977267357969Q391.50379009030985 342.0389573190091 389.491139070849 341.7226835873795L389.491139070849 341.7226835873795Q387.07595784749594 341.3201533834873 385.954623708082 340.57259729054476Q384.8332895686681 339.8250411976021 383.74070758667506 338.1861682246125L383.74070758667506 338.1861682246125Q381.9005695117394 335.56972189931344 377.47273726892547 332.119463008809Q373.0161528686906 328.6979562757256 362.80913698428185 328.6979562757256L362.80913698428185 328.6979562757256Q348.4618104312679 328.6979562757256 339.14611142690615 339.7675368827604Q329.8591645799652 350.8371174897952 329.8591645799652 375.59272502916406L329.8591645799652 375.59272502916406Q329.8591645799652 400.2620760962702 339.60614594564004 412.1942214259311Q349.3531273113149 424.12636675559213 363.4129322901201 424.12636675559213Z " fill="#fff748" transform="matrix(0.6665839629933116,0,0,0.6665839629933114,0,49.089696809183195)"/><path d="M696.2405308987957 362.3603679968934L696.2405308987957 320.97613378029405Q696.2405308987957 318.06295787270733 697.2401500827715 316.54924882268676L697.2401500827715 316.54924882268676Q701.7812772328332 309.92320166033267 709.8924728970942 302.6117013432523L709.8924728970942 302.6117013432523Q711.4061819471148 301.41215832248133 712.520043323545 301.41215832248133L712.520043323545 301.41215832248133Q713.719586344316 301.41215832248133 715.0333715575413 302.6117013432523L715.0333715575413 302.6117013432523Q719.431695967035 306.41025424236045 722.459114067076 309.89464111221906Q725.4579716190036 313.3504674339641 727.685694371864 316.54924882268676L727.685694371864 316.54924882268676Q728.6853135558398 318.1772000651616 728.6853135558398 320.97613378029405L728.6853135558398 320.97613378029405L728.6853135558398 443.58656683195807Q728.6853135558398 446.58542438388554 727.4286494388416 447.756406856543Q726.1719853218434 448.89882878108676 723.1731277699159 448.89882878108676L723.1731277699159 448.89882878108676L701.7812772328332 448.89882878108676Q698.7538591327921 448.89882878108676 697.4971950157939 447.756406856543Q696.2405308987957 446.58542438388554 696.2405308987957 443.58656683195807L696.2405308987957 443.58656683195807L696.2405308987957 390.26402350387593L636.606106437609 390.26402350387593L636.606106437609 443.58656683195807Q636.606106437609 446.58542438388554 635.3494423206107 447.756406856543Q634.0927782036126 448.89882878108676 631.093920651685 448.89882878108676L631.093920651685 448.89882878108676L609.7020701146023 448.89882878108676Q606.6746520145612 448.89882878108676 605.4179878975631 447.756406856543Q604.1898843286784 446.58542438388554 604.1898843286784 443.58656683195807L604.1898843286784 443.58656683195807L604.1898843286784 310.23736768958224Q604.1898843286784 307.2099495895411 605.4179878975631 306.06752766499733Q606.6746520145612 304.92510574045355 609.7020701146023 304.92510574045355L609.7020701146023 304.92510574045355L631.093920651685 304.92510574045355Q634.0927782036126 304.92510574045355 635.3494423206107 306.06752766499733Q636.606106437609 307.2099495895411 636.606106437609 310.23736768958224L636.606106437609 310.23736768958224L636.606106437609 362.3603679968934L696.2405308987957 362.3603679968934ZM822.5638352052272 451.41215701508315L822.5638352052272 451.41215701508315Q801.6860745341891 451.41215701508315 786.2062574566205 443.3866429951629Q770.7550009271655 435.3325684271291 762.2725181374277 419.1672981948342Q753.7900353476899 403.0020279625394 753.7900353476899 378.8112437103242L753.7900353476899 378.8112437103242Q753.7900353476899 340.36874594942515 772.554315458322 321.43310255011147Q791.3471561170676 302.4974591507979 824.8772396024284 302.4974591507979L824.8772396024284 302.4974591507979Q856.293842527383 302.4974591507979 874.5725933200839 321.03325487652114Q892.8513441127849 339.5404900541308 892.8513441127849 375.8980678027375L892.8513441127849 375.8980678027375Q892.8513441127849 401.6025611049731 884.31174022682 418.3104817514263Q875.772136340855 435.0469629459931 860.0067137821504 443.2152797064813Q844.241291223446 451.41215701508315 822.5638352052272 451.41215701508315ZM823.1636067156127 424.3081968552814L823.1636067156127 424.3081968552814Q841.2424336715184 424.3081968552814 849.9819613942785 411.3417080117091Q858.7214891170387 398.4037797162505 858.7214891170387 377.697382333894L858.7214891170387 377.697382333894Q858.7214891170387 353.7065219184741 850.4674907122096 341.6539706145369Q842.2420528554942 329.60141931059974 823.9633020627933 329.60141931059974L823.9633020627933 329.60141931059974Q787.9198903434361 329.60141931059974 787.9198903434361 377.0976108235085L787.9198903434361 377.0976108235085Q787.9198903434361 398.2895375237962 796.6022969699692 411.2845869154819Q805.284703596502 424.3081968552814 823.1636067156127 424.3081968552814ZM973.5634530818048 448.89882878108676L942.7466216672357 448.89882878108676Q932.4077032501142 448.89882878108676 927.0383202047583 446.2998189027496Q921.6689371594024 443.6722484762988 919.8125015320187 437.7602150167846Q917.956065904635 431.8196210091569 917.956065904635 421.99479245808016L917.956065904635 421.99479245808016L917.956065904635 331.82914206346015Q917.956065904635 321.7758291274747 919.8125015320187 315.9209167641876Q921.6689371594024 310.0374438527871 927.0383202047583 307.4669945225635Q932.4077032501142 304.92510574045355 942.7466216672357 304.92510574045355L942.7466216672357 304.92510574045355L973.5634530818048 304.92510574045355Q995.1552274556828 304.92510574045355 1011.3776187842049 311.3512290660125Q1027.600010112727 317.77735239157136 1036.625143316623 333.08580618045835Q1045.6788370686327 348.3942599693454 1045.6788370686327 375.09837245555684L1045.6788370686327 375.09837245555684Q1045.6788370686327 401.8024849417684 1036.625143316623 418.0248762702904Q1027.600010112727 434.2472675988124 1011.3776187842049 441.55876791589276Q995.1552274556828 448.89882878108676 973.5634530818048 448.89882878108676L973.5634530818048 448.89882878108676ZM966.2519527647245 331.3150521974154L961.8250678071172 331.3150521974154Q955.1990206447632 331.3150521974154 952.7999346032211 334.1425464606614Q950.3722880135656 336.9414801757937 950.3722880135656 343.76745117494295L950.3722880135656 343.76745117494295L950.3722880135656 410.0279227984837Q950.3722880135656 416.7682121532922 952.7999346032211 419.68138806087893Q955.1990206447632 422.59456396846565 961.8250678071172 422.59456396846565L961.8250678071172 422.59456396846565L966.4518766015196 422.59456396846565Q987.9294087829431 422.59456396846565 999.7249151538581 412.055721714549Q1011.5204215247728 401.51687946063237 1011.5204215247728 375.49822012914717L1011.5204215247728 375.49822012914717Q1011.5204215247728 358.13340687608127 1006.151038479417 348.53706270991336Q1000.781655434061 338.94071854374533 990.6426608537348 335.1421656446372Q980.5036662734084 331.3150521974154 966.2519527647245 331.3150521974154L966.2519527647245 331.3150521974154ZM1146.0691636879199 448.89882878108676L1095.5741146230835 448.89882878108676Q1085.235196205962 448.89882878108676 1079.8658131606062 446.2998189027496Q1074.4964301152504 443.6722484762988 1072.6399944878667 437.7602150167846Q1070.7835588604828 431.8196210091569 1070.7835588604828 421.99479245808016L1070.7835588604828 421.99479245808016L1070.7835588604828 331.82914206346015Q1070.7835588604828 321.7758291274747 1072.6399944878667 315.9209167641876Q1074.4964301152504 310.0374438527871 1079.8658131606062 307.4669945225635Q1085.235196205962 304.92510574045355 1095.5741146230835 304.92510574045355L1095.5741146230835 304.92510574045355L1142.7561401067426 304.92510574045355Q1145.1837866963983 304.92510574045355 1146.3833297171693 305.7248010876342L1146.3833297171693 305.7248010876342Q1148.9823395955063 307.5241156187907 1151.8098338587524 310.0374438527871Q1154.6087675738845 312.5507720867834 1157.7218673182665 316.0637195047556L1157.7218673182665 316.0637195047556Q1158.7214865022424 317.37750471798097 1158.7214865022424 318.1772000651616L1158.7214865022424 318.1772000651616Q1158.7214865022424 319.06257705668315 1157.7218673182665 320.17643843311333L1157.7218673182665 320.17643843311333Q1154.6087675738845 323.6893858510855 1151.8098338587524 326.2027140850819Q1148.9823395955063 328.71604231907827 1146.3833297171693 330.51535685023475L1146.3833297171693 330.51535685023475Q1144.983862859603 331.3150521974154 1142.7561401067426 331.3150521974154L1142.7561401067426 331.3150521974154L1114.652560762965 331.3150521974154Q1108.026513600611 331.3150521974154 1105.627427559069 334.1425464606614Q1103.1997809694135 336.9414801757937 1103.1997809694135 343.76745117494295L1103.1997809694135 343.76745117494295L1103.1997809694135 363.2457449884149L1139.2431926887705 363.2457449884149Q1141.670839278426 363.2457449884149 1142.870382299197 364.0454403355956L1142.870382299197 364.0454403355956Q1145.4693921775342 365.8733154148656 1148.29688644078 368.35808310074833Q1151.0958201559124 370.8714113347447 1154.2089199002944 374.38435875271693L1154.2089199002944 374.38435875271693Q1155.2085390842701 375.69814396594234 1155.2085390842701 376.497839313123L1155.2085390842701 376.497839313123Q1155.2085390842701 377.41177685275807 1154.2089199002944 378.5256382291883L1154.2089199002944 378.5256382291883Q1151.0958201559124 382.0385856471605 1148.29688644078 384.52335333304325Q1145.4693921775342 387.03668156703964 1142.870382299197 388.8645566463098L1142.870382299197 388.8645566463098Q1141.470915441631 389.66425199349044 1139.2431926887705 389.66425199349044L1139.2431926887705 389.66425199349044L1103.1997809694135 389.66425199349044L1103.1997809694135 409.94224115414295Q1103.1997809694135 416.6539699608378 1105.627427559069 419.5671458684245Q1108.026513600611 422.48032177601124 1114.652560762965 422.48032177601124L1114.652560762965 422.48032177601124L1146.0691636879199 422.48032177601124Q1148.4968102775752 422.48032177601124 1149.6963532983464 423.30857767130556L1149.6963532983464 423.30857767130556Q1152.2953631766836 425.10789220246204 1155.1228574399292 427.62122043645843Q1157.9217911550618 430.1345486704547 1161.0348908994436 433.6474960884269L1161.0348908994436 433.6474960884269Q1162.0345100834195 434.9327207535388 1162.0345100834195 435.73241610071943L1162.0345100834195 435.73241610071943Q1162.0345100834195 436.6463536403544 1161.0348908994436 437.7602150167846L1161.0348908994436 437.7602150167846Q1157.9217911550618 441.27316243475684 1155.1228574399292 443.78649066875323Q1152.2953631766836 446.2998189027496 1149.6963532983464 448.0991334339061L1149.6963532983464 448.0991334339061Q1148.29688644078 448.89882878108676 1146.0691636879199 448.89882878108676L1146.0691636879199 448.89882878108676ZM1213.7576627171402 344.8813125513732L1213.7576627171402 443.58656683195807Q1213.7576627171402 446.58542438388554 1212.586680244483 447.756406856543Q1211.444258319939 448.89882878108676 1208.5310824123521 448.89882878108676L1208.5310824123521 448.89882878108676L1188.3387748960406 448.89882878108676Q1185.5398411809083 448.89882878108676 1184.340298160137 447.756406856543Q1183.1407551393663 446.58542438388554 1183.1407551393663 443.58656683195807L1183.1407551393663 443.58656683195807L1183.1407551393663 316.3493249858916Q1183.1407551393663 310.4372915263774 1185.4255989884537 307.66691835935865Q1187.739003385655 304.92510574045355 1193.5653552008284 304.92510574045355L1193.5653552008284 304.92510574045355L1202.904654433974 304.92510574045355Q1208.0169925463076 304.92510574045355 1212.586680244483 306.2674515017925Q1217.156367942658 307.63835781124504 1222.3258271512186 312.35084824998825Q1227.5238469078931 317.0633386887315 1234.378378455156 326.9452883360354Q1241.2614705505325 336.85579853145293 1251.0006174572682 353.90644575526926L1251.0006174572682 353.90644575526926Q1260.3399166904142 370.1859581800185 1266.0234657650194 379.92510508675446Q1271.6784542915111 389.66425199349044 1274.7915540358931 394.77659010582397Q1277.904653780275 399.8889282181575 1279.4754839265229 402.11665097101786Q1281.0177535246567 404.3158131757647 1282.0173727086326 405.7152800333308L1282.0173727086326 405.7152800333308L1282.0173727086326 320.97613378029405Q1282.0173727086326 318.06295787270733 1282.931310248268 316.54924882268676L1282.931310248268 316.54924882268676Q1287.2439530134207 309.92320166033267 1294.8696193597507 302.6117013432523L1294.8696193597507 302.6117013432523Q1296.383328409771 301.41215832248133 1297.3829475937468 301.41215832248133L1297.3829475937468 301.41215832248133Q1298.496808970177 301.41215832248133 1299.8105941834024 302.6117013432523L1299.8105941834024 302.6117013432523Q1303.9233131117603 306.41025424236045 1306.77936792312 309.89464111221906Q1309.635422734479 313.3504674339641 1311.7489032948852 316.54924882268676L1311.7489032948852 316.54924882268676Q1312.6628408345205 318.1772000651616 1312.6628408345205 320.97613378029405L1312.6628408345205 320.97613378029405L1312.6628408345205 440.55914873191693Q1312.6628408345205 445.071715333865 1310.9492079477045 446.98527205747587Q1309.235575060889 448.89882878108676 1304.723008458941 448.89882878108676L1304.723008458941 448.89882878108676L1295.098103744659 448.89882878108676Q1290.7569004313928 448.89882878108676 1286.2443338294447 447.4422408272934Q1281.7317672274967 445.98565287350004 1276.0196576047779 440.8161936649393Q1270.278987433945 435.64673445637857 1262.4533972508198 424.7080445288717Q1254.627807067695 413.76935460136474 1243.5748749477334 394.77659010582397L1243.5748749477334 394.77659010582397Q1234.2355757145879 378.61131987352906 1228.6662688324368 369.07209680358824Q1223.0969619502857 359.53287373364753 1220.183786042699 354.67758055433626Q1217.2706101351123 349.79372682691155 1215.956824921887 347.851609555187Q1214.6716002567755 345.880931735349 1213.7576627171402 344.8813125513732L1213.7576627171402 344.8813125513732Z " fill="#3c1a5b" transform="matrix(0.6665839629933116,0,0,0.6665839629933114,0,49.089696809183195)"/></g></svg>