<svg xmlns="http://www.w3.org/2000/svg" xmlns:xlink="http://www.w3.org/1999/xlink" width="500" zoomAndPan="magnify" viewBox="0 0 375 374.999991" height="500" preserveAspectRatio="xMidYMid meet" version="1.2"><defs><clipPath id="9d323c9edf"><path d="M 113.632812 160.699219 L 188 160.699219 L 188 186 L 113.632812 186 Z M 113.632812 160.699219 "/></clipPath><clipPath id="e34fc263b2"><path d="M 158 161 L 201.382812 161 L 201.382812 186 L 158 186 Z M 158 161 "/></clipPath><clipPath id="a3e177c5e8"><path d="M 136 177.550781 L 163 177.550781 L 163 191.050781 L 136 191.050781 Z M 136 177.550781 "/></clipPath><clipPath id="921919cb30"><path d="M 139 190 L 160 190 L 160 191.050781 L 139 191.050781 Z M 139 190 "/></clipPath><clipPath id="ce502084d5"><path d="M 139 180 L 160 180 L 160 191.050781 L 139 191.050781 Z M 139 180 "/></clipPath><clipPath id="f7eccd0d7f"><path d="M 148 180 L 151 180 L 151 191.050781 L 148 191.050781 Z M 148 180 "/></clipPath><clipPath id="b32eeb08ed"><path d="M 148 183 L 158 183 L 158 191.050781 L 148 191.050781 Z M 148 183 "/></clipPath><clipPath id="3108b05927"><path d="M 142 183 L 151 183 L 151 191.050781 L 142 191.050781 Z M 142 183 "/></clipPath></defs><g id="cb2ce2fcff"><rect x="0" width="375" y="0" height="374.999991" style="fill:#ffffff;fill-opacity:1;stroke:none;"/><rect x="0" width="375" y="0" height="374.999991" style="fill:#fbfaf9;fill-opacity:1;stroke:none;"/><g clip-rule="nonzero" clip-path="url(#9d323c9edf)"><path style=" stroke:none;fill-rule:evenodd;fill:#242424;fill-opacity:1;" d="M 114.96875 185.660156 L 150.757812 162.507812 C 150.757812 162.507812 186.550781 185.660156 186.550781 185.660156 C 186.917969 185.902344 187.414062 185.792969 187.65625 185.425781 C 187.894531 185.054688 187.789062 184.558594 187.417969 184.320312 C 187.417969 184.320312 151.191406 160.882812 151.191406 160.882812 C 150.929688 160.710938 150.585938 160.710938 150.324219 160.882812 C 150.324219 160.882812 114.097656 184.320312 114.097656 184.320312 C 113.726562 184.558594 113.621094 185.054688 113.863281 185.425781 C 114.101562 185.792969 114.597656 185.902344 114.96875 185.660156 Z M 114.96875 185.660156 "/></g><g clip-rule="nonzero" clip-path="url(#e34fc263b2)"><path style=" stroke:none;fill-rule:evenodd;fill:#242424;fill-opacity:1;" d="M 159.605469 167.242188 L 166.191406 162.980469 C 166.191406 162.980469 200.027344 185.179688 200.027344 185.179688 C 200.398438 185.421875 200.894531 185.320312 201.136719 184.949219 C 201.378906 184.582031 201.273438 184.085938 200.90625 183.84375 C 200.90625 183.84375 166.632812 161.359375 166.632812 161.359375 C 166.367188 161.1875 166.023438 161.183594 165.757812 161.355469 C 165.757812 161.355469 162.84375 163.242188 158.738281 165.898438 C 158.367188 166.136719 158.261719 166.632812 158.5 167.003906 C 158.742188 167.375 159.238281 167.480469 159.605469 167.242188 Z M 159.605469 167.242188 "/></g><path style=" stroke:none;fill-rule:evenodd;fill:#242424;fill-opacity:1;" d="M 134.40625 172.367188 L 134.40625 166.328125 C 134.40625 165.890625 134.050781 165.53125 133.609375 165.53125 L 126.949219 165.53125 C 126.507812 165.53125 126.152344 165.890625 126.152344 166.328125 L 126.152344 176.957031 C 126.152344 177.394531 126.507812 177.753906 126.949219 177.753906 C 127.390625 177.753906 127.746094 177.394531 127.746094 176.957031 L 127.746094 167.125 C 127.746094 167.125 132.8125 167.125 132.8125 167.125 L 132.8125 172.367188 C 132.8125 172.804688 133.171875 173.160156 133.609375 173.160156 C 134.050781 173.160156 134.40625 172.804688 134.40625 172.367188 Z M 134.40625 172.367188 "/><path style="fill:none;stroke-width:1;stroke-linecap:round;stroke-linejoin:miter;stroke:#000000;stroke-opacity:1;stroke-miterlimit:4;" d="M 0.502516 0.501341 L 101.523206 0.501341 " transform="matrix(0.749885,-0.000000000000000837,0.000000000000000837,0.749885,200.478639,184.053739)"/><g clip-rule="nonzero" clip-path="url(#a3e177c5e8)"><path style=" stroke:none;fill-rule:nonzero;fill:#000000;fill-opacity:1;" d="M 162.210938 221.800781 L 137.136719 221.800781 C 136.730469 221.800781 136.398438 221.46875 136.398438 221.0625 L 136.398438 190.824219 C 136.398438 183.503906 142.355469 177.550781 149.675781 177.550781 C 156.996094 177.550781 162.949219 183.503906 162.949219 190.824219 L 162.949219 221.0625 C 162.949219 221.46875 162.617188 221.800781 162.210938 221.800781 Z M 137.875 220.324219 L 161.472656 220.324219 L 161.472656 190.824219 C 161.472656 184.316406 156.179688 179.023438 149.675781 179.023438 C 143.167969 179.023438 137.875 184.316406 137.875 190.824219 Z M 137.875 220.324219 "/></g><g clip-rule="nonzero" clip-path="url(#921919cb30)"><path style=" stroke:none;fill-rule:nonzero;fill:#000000;fill-opacity:1;" d="M 159.261719 221.800781 L 140.085938 221.800781 C 139.679688 221.800781 139.347656 221.46875 139.347656 221.0625 L 139.347656 190.824219 C 139.347656 190.417969 139.679688 190.085938 140.085938 190.085938 L 159.261719 190.085938 C 159.667969 190.085938 160 190.417969 160 190.824219 L 160 221.0625 C 160 221.46875 159.667969 221.800781 159.261719 221.800781 Z M 140.824219 220.324219 L 158.523438 220.324219 L 158.523438 191.5625 L 140.824219 191.5625 Z M 140.824219 220.324219 "/></g><g clip-rule="nonzero" clip-path="url(#ce502084d5)"><path style=" stroke:none;fill-rule:nonzero;fill:#000000;fill-opacity:1;" d="M 159.261719 191.5625 L 140.085938 191.5625 C 139.679688 191.5625 139.347656 191.230469 139.347656 190.824219 C 139.347656 185.132812 143.980469 180.5 149.675781 180.5 C 155.367188 180.5 160 185.132812 160 190.824219 C 160 191.230469 159.667969 191.5625 159.261719 191.5625 Z M 140.855469 190.085938 L 158.492188 190.085938 C 158.117188 185.550781 154.304688 181.972656 149.675781 181.972656 C 145.042969 181.972656 141.230469 185.550781 140.855469 190.085938 Z M 140.855469 190.085938 "/></g><g clip-rule="nonzero" clip-path="url(#f7eccd0d7f)"><path style=" stroke:none;fill-rule:nonzero;fill:#000000;fill-opacity:1;" d="M 149.675781 191.5625 C 149.265625 191.5625 148.9375 191.230469 148.9375 190.824219 L 148.9375 181.238281 C 148.9375 180.828125 149.265625 180.5 149.675781 180.5 C 150.082031 180.5 150.410156 180.828125 150.410156 181.238281 L 150.410156 190.824219 C 150.410156 191.230469 150.082031 191.5625 149.675781 191.5625 Z M 149.675781 191.5625 "/></g><g clip-rule="nonzero" clip-path="url(#b32eeb08ed)"><path style=" stroke:none;fill-rule:nonzero;fill:#000000;fill-opacity:1;" d="M 149.675781 191.5625 C 149.484375 191.5625 149.296875 191.488281 149.152344 191.347656 C 148.863281 191.058594 148.863281 190.589844 149.152344 190.304688 L 155.789062 183.664062 C 156.078125 183.378906 156.546875 183.378906 156.832031 183.664062 C 157.121094 183.953125 157.121094 184.421875 156.832031 184.707031 L 150.195312 191.347656 C 150.050781 191.488281 149.863281 191.5625 149.675781 191.5625 Z M 149.675781 191.5625 "/></g><g clip-rule="nonzero" clip-path="url(#3108b05927)"><path style=" stroke:none;fill-rule:nonzero;fill:#000000;fill-opacity:1;" d="M 149.675781 191.5625 C 149.484375 191.5625 149.296875 191.488281 149.152344 191.347656 L 142.515625 184.707031 C 142.226562 184.421875 142.226562 183.953125 142.515625 183.664062 C 142.804688 183.378906 143.269531 183.378906 143.558594 183.664062 L 150.195312 190.304688 C 150.484375 190.589844 150.484375 191.058594 150.195312 191.347656 C 150.050781 191.488281 149.863281 191.5625 149.675781 191.5625 Z M 149.675781 191.5625 "/></g><g style="fill:#242424;fill-opacity:1;"><g transform="translate(105.655822, 216.711653)"><path style="stroke:none" d="M 27.796875 -2.734375 C 26.179688 -1.421875 24.359375 -0.507812 22.328125 0 C 20.296875 0.507812 18.242188 0.765625 16.171875 0.765625 C 14.296875 0.765625 12.476562 0.5 10.71875 -0.03125 C 8.957031 -0.570312 7.40625 -1.378906 6.0625 -2.453125 C 4.71875 -3.535156 3.640625 -4.898438 2.828125 -6.546875 C 2.015625 -8.191406 1.609375 -10.113281 1.609375 -12.3125 C 1.609375 -14.289062 2.015625 -16.085938 2.828125 -17.703125 C 3.640625 -19.328125 4.71875 -20.707031 6.0625 -21.84375 C 7.40625 -22.988281 8.957031 -23.867188 10.71875 -24.484375 C 12.476562 -25.097656 14.296875 -25.40625 16.171875 -25.40625 C 17.066406 -25.40625 17.992188 -25.347656 18.953125 -25.234375 C 19.921875 -25.117188 20.882812 -24.9375 21.84375 -24.6875 C 22.8125 -24.445312 23.75 -24.144531 24.65625 -23.78125 C 25.570312 -23.425781 26.425781 -22.992188 27.21875 -22.484375 L 26.03125 -18.859375 C 25.945312 -18.628906 25.847656 -18.351562 25.734375 -18.03125 C 25.617188 -17.71875 25.535156 -17.5625 25.484375 -17.5625 C 25.429688 -17.5625 25.359375 -17.675781 25.265625 -17.90625 C 25.179688 -18.132812 25.113281 -18.351562 25.0625 -18.5625 C 24.851562 -19.40625 24.546875 -20.175781 24.140625 -20.875 C 23.734375 -21.582031 23.175781 -22.203125 22.46875 -22.734375 C 21.757812 -23.265625 20.890625 -23.679688 19.859375 -23.984375 C 18.835938 -24.296875 17.609375 -24.453125 16.171875 -24.453125 C 14.421875 -24.472656 12.941406 -24.117188 11.734375 -23.390625 C 10.535156 -22.660156 9.566406 -21.71875 8.828125 -20.5625 C 8.097656 -19.40625 7.570312 -18.097656 7.25 -16.640625 C 6.9375 -15.191406 6.78125 -13.75 6.78125 -12.3125 C 6.78125 -10.875 6.960938 -9.4375 7.328125 -8 C 7.703125 -6.570312 8.3125 -5.28125 9.15625 -4.125 C 10.007812 -2.96875 11.132812 -2.019531 12.53125 -1.28125 C 13.925781 -0.550781 15.648438 -0.1875 17.703125 -0.1875 C 21.535156 -0.1875 24.3125 -2.164062 26.03125 -6.125 C 26.132812 -6.351562 26.203125 -6.546875 26.234375 -6.703125 C 26.273438 -6.859375 26.347656 -6.9375 26.453125 -6.9375 C 26.523438 -6.9375 26.582031 -6.890625 26.625 -6.796875 C 26.664062 -6.703125 26.722656 -6.515625 26.796875 -6.234375 Z M 27.796875 -2.734375 "/></g></g><g style="fill:#242424;fill-opacity:1;"><g transform="translate(134.863897, 216.711653)"><path style="stroke:none" d="M 29.53125 0 C 29.53125 0.0703125 29.320312 0.109375 28.90625 0.109375 C 28.570312 0.109375 28.269531 0.101562 28 0.09375 C 27.738281 0.0820312 27.460938 0.0664062 27.171875 0.046875 C 26.890625 0.0351562 26.566406 0.0234375 26.203125 0.015625 C 25.847656 0.00390625 25.40625 0 24.875 0 C 24.332031 0 23.878906 0.00390625 23.515625 0.015625 C 23.160156 0.0234375 22.84375 0.0351562 22.5625 0.046875 C 22.28125 0.0664062 22.007812 0.0820312 21.75 0.09375 C 21.5 0.101562 21.191406 0.109375 20.828125 0.109375 C 20.421875 0.109375 20.21875 0.0703125 20.21875 0 C 20.21875 -0.101562 20.332031 -0.207031 20.5625 -0.3125 C 21.4375 -0.75 22 -1.257812 22.25 -1.84375 C 22.507812 -2.4375 22.640625 -3.207031 22.640625 -4.15625 L 22.640625 -12.515625 L 7.96875 -12.515625 L 7.96875 -4.15625 C 7.96875 -3.207031 8.09375 -2.4375 8.34375 -1.84375 C 8.601562 -1.257812 9.171875 -0.75 10.046875 -0.3125 C 10.273438 -0.207031 10.390625 -0.101562 10.390625 0 C 10.390625 0.0703125 10.1875 0.109375 9.78125 0.109375 C 9.445312 0.109375 9.144531 0.101562 8.875 0.09375 C 8.601562 0.0820312 8.328125 0.0664062 8.046875 0.046875 C 7.765625 0.0351562 7.441406 0.0234375 7.078125 0.015625 C 6.722656 0.00390625 6.273438 0 5.734375 0 C 5.191406 0 4.738281 0.00390625 4.375 0.015625 C 4.019531 0.0234375 3.703125 0.0351562 3.421875 0.046875 C 3.140625 0.0664062 2.867188 0.0820312 2.609375 0.09375 C 2.359375 0.101562 2.050781 0.109375 1.6875 0.109375 C 1.28125 0.109375 1.078125 0.0703125 1.078125 0 C 1.078125 -0.101562 1.191406 -0.207031 1.421875 -0.3125 C 2.296875 -0.75 2.859375 -1.257812 3.109375 -1.84375 C 3.367188 -2.4375 3.5 -3.207031 3.5 -4.15625 L 3.5 -21.25 C 3.5 -22.050781 3.375 -22.738281 3.125 -23.3125 C 2.882812 -23.882812 2.457031 -24.25 1.84375 -24.40625 C 1.59375 -24.507812 1.46875 -24.585938 1.46875 -24.640625 C 1.46875 -24.742188 1.660156 -24.796875 2.046875 -24.796875 C 2.191406 -24.796875 2.410156 -24.785156 2.703125 -24.765625 C 3.003906 -24.753906 3.328125 -24.734375 3.671875 -24.703125 C 4.023438 -24.679688 4.378906 -24.664062 4.734375 -24.65625 C 5.097656 -24.644531 5.429688 -24.640625 5.734375 -24.640625 C 6.046875 -24.640625 6.382812 -24.644531 6.75 -24.65625 C 7.125 -24.664062 7.484375 -24.679688 7.828125 -24.703125 C 8.179688 -24.734375 8.5 -24.753906 8.78125 -24.765625 C 9.0625 -24.785156 9.28125 -24.796875 9.4375 -24.796875 C 9.820312 -24.796875 10.015625 -24.742188 10.015625 -24.640625 C 10.015625 -24.585938 9.882812 -24.507812 9.625 -24.40625 C 9.007812 -24.25 8.578125 -23.882812 8.328125 -23.3125 C 8.085938 -22.738281 7.96875 -22.050781 7.96875 -21.25 L 7.96875 -13.46875 L 22.640625 -13.46875 L 22.640625 -21.25 C 22.640625 -22.050781 22.515625 -22.738281 22.265625 -23.3125 C 22.023438 -23.882812 21.597656 -24.25 20.984375 -24.40625 C 20.722656 -24.507812 20.59375 -24.585938 20.59375 -24.640625 C 20.59375 -24.742188 20.785156 -24.796875 21.171875 -24.796875 C 21.328125 -24.796875 21.550781 -24.785156 21.84375 -24.765625 C 22.144531 -24.753906 22.46875 -24.734375 22.8125 -24.703125 C 23.15625 -24.679688 23.503906 -24.664062 23.859375 -24.65625 C 24.222656 -24.644531 24.5625 -24.640625 24.875 -24.640625 C 25.175781 -24.640625 25.515625 -24.644531 25.890625 -24.65625 C 26.265625 -24.664062 26.625 -24.679688 26.96875 -24.703125 C 27.3125 -24.734375 27.625 -24.753906 27.90625 -24.765625 C 28.195312 -24.785156 28.414062 -24.796875 28.5625 -24.796875 C 28.945312 -24.796875 29.140625 -24.742188 29.140625 -24.640625 C 29.140625 -24.585938 29.015625 -24.507812 28.765625 -24.40625 C 28.140625 -24.25 27.707031 -23.882812 27.46875 -23.3125 C 27.226562 -22.738281 27.109375 -22.050781 27.109375 -21.25 L 27.109375 -4.15625 C 27.109375 -3.207031 27.234375 -2.4375 27.484375 -1.84375 C 27.742188 -1.257812 28.3125 -0.75 29.1875 -0.3125 C 29.414062 -0.207031 29.53125 -0.101562 29.53125 0 Z M 29.53125 0 "/></g></g><g style="fill:#242424;fill-opacity:1;"><g transform="translate(165.4958, 216.711653)"><path style="stroke:none" d="M 30.5625 -12.3125 C 30.5625 -10.34375 30.15625 -8.546875 29.34375 -6.921875 C 28.539062 -5.304688 27.460938 -3.925781 26.109375 -2.78125 C 24.765625 -1.644531 23.21875 -0.769531 21.46875 -0.15625 C 19.726562 0.457031 17.910156 0.765625 16.015625 0.765625 C 14.140625 0.765625 12.320312 0.457031 10.5625 -0.15625 C 8.8125 -0.769531 7.257812 -1.644531 5.90625 -2.78125 C 4.5625 -3.925781 3.484375 -5.304688 2.671875 -6.921875 C 1.867188 -8.546875 1.46875 -10.34375 1.46875 -12.3125 C 1.46875 -14.289062 1.867188 -16.085938 2.671875 -17.703125 C 3.484375 -19.328125 4.5625 -20.707031 5.90625 -21.84375 C 7.257812 -22.988281 8.8125 -23.867188 10.5625 -24.484375 C 12.320312 -25.097656 14.140625 -25.40625 16.015625 -25.40625 C 17.910156 -25.40625 19.726562 -25.097656 21.46875 -24.484375 C 23.21875 -23.867188 24.765625 -22.988281 26.109375 -21.84375 C 27.460938 -20.707031 28.539062 -19.328125 29.34375 -17.703125 C 30.15625 -16.085938 30.5625 -14.289062 30.5625 -12.3125 Z M 25.40625 -12.3125 C 25.40625 -13.75 25.242188 -15.1875 24.921875 -16.625 C 24.609375 -18.0625 24.082031 -19.359375 23.34375 -20.515625 C 22.613281 -21.671875 21.644531 -22.613281 20.4375 -23.34375 C 19.238281 -24.082031 17.765625 -24.453125 16.015625 -24.453125 C 14.265625 -24.453125 12.785156 -24.082031 11.578125 -23.34375 C 10.378906 -22.613281 9.410156 -21.671875 8.671875 -20.515625 C 7.941406 -19.359375 7.414062 -18.0625 7.09375 -16.625 C 6.78125 -15.1875 6.625 -13.75 6.625 -12.3125 C 6.625 -10.875 6.78125 -9.4375 7.09375 -8 C 7.414062 -6.570312 7.941406 -5.28125 8.671875 -4.125 C 9.410156 -2.96875 10.378906 -2.019531 11.578125 -1.28125 C 12.785156 -0.550781 14.265625 -0.1875 16.015625 -0.1875 C 17.765625 -0.1875 19.238281 -0.550781 20.4375 -1.28125 C 21.644531 -2.019531 22.613281 -2.96875 23.34375 -4.125 C 24.082031 -5.28125 24.609375 -6.570312 24.921875 -8 C 25.242188 -9.4375 25.40625 -10.875 25.40625 -12.3125 Z M 25.40625 -12.3125 "/></g></g><g style="fill:#242424;fill-opacity:1;"><g transform="translate(197.551551, 216.711653)"><path style="stroke:none" d="M 28.953125 -12.390625 C 28.953125 -11.035156 28.675781 -9.625 28.125 -8.15625 C 27.570312 -6.695312 26.738281 -5.363281 25.625 -4.15625 C 24.507812 -2.945312 23.113281 -1.953125 21.4375 -1.171875 C 19.769531 -0.390625 17.804688 0 15.546875 0 L 1.390625 0 C 0.796875 0 0.5 -0.0351562 0.5 -0.109375 C 0.5 -0.160156 0.5625 -0.210938 0.6875 -0.265625 C 0.820312 -0.316406 0.988281 -0.367188 1.1875 -0.421875 C 1.851562 -0.628906 2.398438 -1.070312 2.828125 -1.75 C 3.253906 -2.425781 3.46875 -3.5 3.46875 -4.96875 L 3.46875 -20.328125 C 3.46875 -21.535156 3.347656 -22.378906 3.109375 -22.859375 C 2.878906 -23.347656 2.5 -23.738281 1.96875 -24.03125 C 1.78125 -24.101562 1.625 -24.171875 1.5 -24.234375 C 1.375 -24.296875 1.3125 -24.378906 1.3125 -24.484375 C 1.3125 -24.535156 1.367188 -24.570312 1.484375 -24.59375 C 1.597656 -24.625 1.71875 -24.640625 1.84375 -24.640625 L 14.625 -24.640625 C 16.675781 -24.640625 18.578125 -24.347656 20.328125 -23.765625 C 22.078125 -23.191406 23.582031 -22.363281 24.84375 -21.28125 C 26.113281 -20.207031 27.113281 -18.921875 27.84375 -17.421875 C 28.582031 -15.921875 28.953125 -14.242188 28.953125 -12.390625 Z M 23.796875 -12.9375 C 23.796875 -20.09375 20.429688 -23.671875 13.703125 -23.671875 L 7.9375 -23.671875 L 7.9375 -4 C 7.9375 -2.976562 8.25 -2.21875 8.875 -1.71875 C 9.5 -1.21875 10.695312 -0.96875 12.46875 -0.96875 C 14.601562 -0.96875 16.394531 -1.242188 17.84375 -1.796875 C 19.289062 -2.347656 20.457031 -3.140625 21.34375 -4.171875 C 22.226562 -5.210938 22.859375 -6.46875 23.234375 -7.9375 C 23.609375 -9.414062 23.796875 -11.082031 23.796875 -12.9375 Z M 23.796875 -12.9375 "/></g></g><g style="fill:#242424;fill-opacity:1;"><g transform="translate(228.183453, 216.711653)"><path style="stroke:none" d="M 26.875 -5.859375 C 26.875 -5.804688 26.863281 -5.757812 26.84375 -5.71875 C 26.832031 -5.675781 26.816406 -5.617188 26.796875 -5.546875 L 25.109375 0 L 1.65625 0 C 1.21875 0 0.914062 -0.0078125 0.75 -0.03125 C 0.582031 -0.0625 0.5 -0.101562 0.5 -0.15625 C 0.5 -0.207031 0.644531 -0.28125 0.9375 -0.375 C 1.238281 -0.476562 1.453125 -0.597656 1.578125 -0.734375 C 1.941406 -1.015625 2.226562 -1.300781 2.4375 -1.59375 C 2.65625 -1.894531 2.828125 -2.253906 2.953125 -2.671875 C 3.085938 -3.097656 3.171875 -3.613281 3.203125 -4.21875 C 3.242188 -4.820312 3.265625 -5.554688 3.265625 -6.421875 L 3.265625 -19.515625 C 3.265625 -20.773438 3.175781 -21.796875 3 -22.578125 C 2.820312 -23.359375 2.347656 -23.851562 1.578125 -24.0625 C 1.453125 -24.113281 1.3125 -24.171875 1.15625 -24.234375 C 1 -24.296875 0.921875 -24.351562 0.921875 -24.40625 C 0.921875 -24.488281 0.972656 -24.546875 1.078125 -24.578125 C 1.179688 -24.617188 1.375 -24.640625 1.65625 -24.640625 L 23.40625 -24.640625 L 24.453125 -21.015625 C 24.503906 -20.816406 24.570312 -20.585938 24.65625 -20.328125 C 24.75 -20.066406 24.796875 -19.820312 24.796875 -19.59375 C 24.796875 -19.382812 24.726562 -19.28125 24.59375 -19.28125 C 24.414062 -19.28125 24.265625 -19.398438 24.140625 -19.640625 C 23.734375 -20.304688 23.1875 -20.890625 22.5 -21.390625 C 21.820312 -21.890625 21.066406 -22.3125 20.234375 -22.65625 C 19.398438 -23 18.515625 -23.253906 17.578125 -23.421875 C 16.640625 -23.585938 15.722656 -23.671875 14.828125 -23.671875 L 7.734375 -23.671875 L 7.734375 -13.46875 L 14.859375 -13.46875 C 15.554688 -13.46875 16.222656 -13.546875 16.859375 -13.703125 C 17.503906 -13.859375 18.085938 -14.0625 18.609375 -14.3125 C 19.140625 -14.570312 19.582031 -14.878906 19.9375 -15.234375 C 20.300781 -15.597656 20.546875 -15.972656 20.671875 -16.359375 C 20.753906 -16.585938 20.859375 -16.703125 20.984375 -16.703125 C 21.085938 -16.703125 21.140625 -16.507812 21.140625 -16.125 L 21.140625 -9.78125 C 21.140625 -9.445312 21.125 -9.226562 21.09375 -9.125 C 21.070312 -9.019531 21.035156 -8.96875 20.984375 -8.96875 C 20.898438 -8.96875 20.835938 -9.023438 20.796875 -9.140625 C 20.765625 -9.253906 20.722656 -9.378906 20.671875 -9.515625 C 20.390625 -10.234375 20 -10.789062 19.5 -11.1875 C 19 -11.582031 18.425781 -11.875 17.78125 -12.0625 C 17.144531 -12.257812 16.472656 -12.382812 15.765625 -12.4375 C 15.054688 -12.488281 14.367188 -12.515625 13.703125 -12.515625 L 7.734375 -12.515625 L 7.734375 -4.390625 C 7.734375 -2.972656 8.003906 -2.046875 8.546875 -1.609375 C 9.085938 -1.179688 10.007812 -0.96875 11.3125 -0.96875 L 15.671875 -0.96875 C 16.492188 -0.96875 17.359375 -1.070312 18.265625 -1.28125 C 19.179688 -1.5 20.085938 -1.796875 20.984375 -2.171875 C 21.878906 -2.546875 22.738281 -2.988281 23.5625 -3.5 C 24.382812 -4.019531 25.101562 -4.570312 25.71875 -5.15625 C 25.945312 -5.363281 26.164062 -5.550781 26.375 -5.71875 C 26.582031 -5.882812 26.707031 -5.96875 26.75 -5.96875 C 26.832031 -5.96875 26.875 -5.929688 26.875 -5.859375 Z M 26.875 -5.859375 "/></g></g><g style="fill:#242424;fill-opacity:1;"><g transform="translate(255.96768, 216.711653)"><path style="stroke:none" d="M 28.84375 -24.640625 C 28.84375 -24.535156 28.625 -24.367188 28.1875 -24.140625 C 27.71875 -23.910156 27.335938 -23.578125 27.046875 -23.140625 C 26.753906 -22.703125 26.523438 -22.191406 26.359375 -21.609375 C 26.191406 -21.035156 26.070312 -20.421875 26 -19.765625 C 25.9375 -19.109375 25.90625 -18.445312 25.90625 -17.78125 L 25.90625 0.265625 C 25.90625 0.398438 25.878906 0.53125 25.828125 0.65625 C 25.773438 0.78125 25.710938 0.84375 25.640625 0.84375 C 25.515625 0.84375 25.382812 0.769531 25.25 0.625 C 25.125 0.488281 24.984375 0.332031 24.828125 0.15625 L 4.546875 -21.984375 L 4.546875 -6.859375 C 4.546875 -6.191406 4.578125 -5.535156 4.640625 -4.890625 C 4.703125 -4.242188 4.84375 -3.628906 5.0625 -3.046875 C 5.28125 -2.472656 5.582031 -1.957031 5.96875 -1.5 C 6.351562 -1.039062 6.851562 -0.671875 7.46875 -0.390625 C 7.59375 -0.335938 7.703125 -0.296875 7.796875 -0.265625 C 7.890625 -0.242188 7.9375 -0.207031 7.9375 -0.15625 C 7.9375 -0.101562 7.875 -0.0625 7.75 -0.03125 C 7.632812 -0.0078125 7.410156 0 7.078125 0 L 0.609375 0 C 0.378906 0 0.265625 -0.0234375 0.265625 -0.078125 C 0.265625 -0.179688 0.351562 -0.234375 0.53125 -0.234375 C 1.175781 -0.535156 1.695312 -0.929688 2.09375 -1.421875 C 2.488281 -1.910156 2.796875 -2.445312 3.015625 -3.03125 C 3.234375 -3.625 3.378906 -4.25 3.453125 -4.90625 C 3.535156 -5.5625 3.578125 -6.210938 3.578125 -6.859375 L 3.578125 -17.640625 C 3.578125 -18.867188 3.53125 -19.875 3.4375 -20.65625 C 3.351562 -21.4375 3.234375 -22.050781 3.078125 -22.5 C 2.921875 -22.945312 2.726562 -23.28125 2.5 -23.5 C 2.269531 -23.71875 2.015625 -23.894531 1.734375 -24.03125 C 1.273438 -24.226562 1.046875 -24.367188 1.046875 -24.453125 C 1.046875 -24.578125 1.234375 -24.640625 1.609375 -24.640625 L 8.015625 -24.640625 L 24.953125 -7.359375 L 24.953125 -16.5625 C 24.953125 -17.457031 24.914062 -18.304688 24.84375 -19.109375 C 24.78125 -19.921875 24.640625 -20.660156 24.421875 -21.328125 C 24.203125 -21.992188 23.898438 -22.582031 23.515625 -23.09375 C 23.140625 -23.613281 22.613281 -24.015625 21.9375 -24.296875 C 21.738281 -24.367188 21.640625 -24.46875 21.640625 -24.59375 C 21.640625 -24.726562 21.804688 -24.796875 22.140625 -24.796875 L 28.453125 -24.796875 C 28.710938 -24.796875 28.84375 -24.742188 28.84375 -24.640625 Z M 28.84375 -24.640625 "/></g></g><g style="fill:#242424;fill-opacity:1;"><g transform="translate(108.871207, 239.372364)"><path style="stroke:none" d="M 1.453125 0 L 1.453125 -12.734375 L 5.453125 -12.734375 C 6.003906 -12.734375 6.492188 -12.601562 6.921875 -12.34375 C 7.359375 -12.082031 7.707031 -11.734375 7.96875 -11.296875 C 8.226562 -10.859375 8.359375 -10.367188 8.359375 -9.828125 L 8.359375 -9.046875 C 8.359375 -8.566406 8.25 -8.128906 8.03125 -7.734375 C 7.820312 -7.335938 7.539062 -7.019531 7.1875 -6.78125 C 7.644531 -6.5625 8.015625 -6.234375 8.296875 -5.796875 C 8.585938 -5.359375 8.734375 -4.863281 8.734375 -4.3125 L 8.734375 -2.90625 C 8.734375 -2.375 8.601562 -1.882812 8.34375 -1.4375 C 8.082031 -1 7.734375 -0.648438 7.296875 -0.390625 C 6.859375 -0.128906 6.363281 0 5.8125 0 Z M 2.546875 -7.21875 L 5.453125 -7.21875 C 5.960938 -7.21875 6.394531 -7.394531 6.75 -7.75 C 7.101562 -8.101562 7.28125 -8.535156 7.28125 -9.046875 L 7.28125 -9.828125 C 7.28125 -10.328125 7.101562 -10.753906 6.75 -11.109375 C 6.394531 -11.460938 5.960938 -11.640625 5.453125 -11.640625 L 2.546875 -11.640625 Z M 2.546875 -1.09375 L 5.8125 -1.09375 C 6.320312 -1.09375 6.753906 -1.265625 7.109375 -1.609375 C 7.460938 -1.960938 7.640625 -2.394531 7.640625 -2.90625 L 7.640625 -4.3125 C 7.640625 -4.820312 7.460938 -5.25 7.109375 -5.59375 C 6.753906 -5.945312 6.320312 -6.125 5.8125 -6.125 L 2.546875 -6.125 Z M 2.546875 -1.09375 "/></g></g><g style="fill:#242424;fill-opacity:1;"><g transform="translate(119.055324, 239.372364)"><path style="stroke:none" d="M 1.453125 0 L 1.453125 -9.328125 L 2.546875 -9.328125 L 2.546875 -7.5625 L 5.1875 -9.328125 L 5.8125 -9.328125 C 6.351562 -9.328125 6.84375 -9.195312 7.28125 -8.9375 C 7.726562 -8.675781 8.082031 -8.320312 8.34375 -7.875 C 8.601562 -7.4375 8.734375 -6.953125 8.734375 -6.421875 L 8.734375 -5.875 L 7.640625 -5.875 L 7.640625 -6.421875 C 7.640625 -6.921875 7.457031 -7.347656 7.09375 -7.703125 C 6.738281 -8.054688 6.3125 -8.234375 5.8125 -8.234375 L 5.53125 -8.234375 L 2.546875 -6.25 L 2.546875 0 Z M 1.453125 0 "/></g></g><g style="fill:#242424;fill-opacity:1;"><g transform="translate(129.239441, 239.372364)"><path style="stroke:none" d="M 4.359375 0 C 3.828125 0 3.335938 -0.128906 2.890625 -0.390625 C 2.453125 -0.660156 2.101562 -1.015625 1.84375 -1.453125 C 1.582031 -1.898438 1.453125 -2.390625 1.453125 -2.921875 L 1.453125 -6.421875 C 1.453125 -6.953125 1.582031 -7.4375 1.84375 -7.875 C 2.101562 -8.320312 2.453125 -8.675781 2.890625 -8.9375 C 3.335938 -9.195312 3.828125 -9.328125 4.359375 -9.328125 L 5.8125 -9.328125 C 6.363281 -9.328125 6.859375 -9.195312 7.296875 -8.9375 C 7.734375 -8.675781 8.082031 -8.328125 8.34375 -7.890625 C 8.601562 -7.453125 8.734375 -6.960938 8.734375 -6.421875 L 8.734375 -2.921875 C 8.734375 -2.390625 8.601562 -1.898438 8.34375 -1.453125 C 8.082031 -1.003906 7.726562 -0.648438 7.28125 -0.390625 C 6.84375 -0.128906 6.351562 0 5.8125 0 Z M 4.359375 -1.109375 L 5.8125 -1.109375 C 6.3125 -1.109375 6.738281 -1.285156 7.09375 -1.640625 C 7.457031 -2.003906 7.640625 -2.429688 7.640625 -2.921875 L 7.640625 -6.421875 C 7.640625 -6.929688 7.460938 -7.359375 7.109375 -7.703125 C 6.753906 -8.054688 6.320312 -8.234375 5.8125 -8.234375 L 4.359375 -8.234375 C 3.847656 -8.234375 3.414062 -8.054688 3.0625 -7.703125 C 2.71875 -7.359375 2.546875 -6.929688 2.546875 -6.421875 L 2.546875 -2.921875 C 2.546875 -2.429688 2.722656 -2.003906 3.078125 -1.640625 C 3.441406 -1.285156 3.867188 -1.109375 4.359375 -1.109375 Z M 4.359375 -1.109375 "/></g></g><g style="fill:#242424;fill-opacity:1;"><g transform="translate(139.423559, 239.372364)"><path style="stroke:none" d="M 7.1875 0 C 6.65625 0 6.164062 -0.128906 5.71875 -0.390625 C 5.28125 -0.648438 4.929688 -1 4.671875 -1.4375 C 4.410156 -1.882812 4.28125 -2.375 4.28125 -2.90625 L 4.28125 -8.234375 L 1.453125 -8.234375 L 1.453125 -9.328125 L 4.28125 -9.328125 L 4.28125 -11.453125 L 5.359375 -11.453125 L 5.359375 -9.328125 L 8.734375 -9.328125 L 8.734375 -8.234375 L 5.359375 -8.234375 L 5.359375 -2.90625 C 5.359375 -2.394531 5.535156 -1.960938 5.890625 -1.609375 C 6.242188 -1.265625 6.675781 -1.09375 7.1875 -1.09375 L 8.734375 -1.09375 L 8.734375 0 Z M 7.1875 0 "/></g></g><g style="fill:#242424;fill-opacity:1;"><g transform="translate(149.607676, 239.372364)"><path style="stroke:none" d="M 1.453125 0 L 1.453125 -12.90625 L 2.546875 -12.90625 L 2.546875 -8.0625 L 4.40625 -9.328125 L 5.8125 -9.328125 C 6.351562 -9.328125 6.84375 -9.195312 7.28125 -8.9375 C 7.726562 -8.675781 8.082031 -8.320312 8.34375 -7.875 C 8.601562 -7.4375 8.734375 -6.953125 8.734375 -6.421875 L 8.734375 0 L 7.640625 0 L 7.640625 -6.421875 C 7.640625 -6.921875 7.457031 -7.347656 7.09375 -7.703125 C 6.738281 -8.054688 6.3125 -8.234375 5.8125 -8.234375 L 4.75 -8.234375 L 2.546875 -6.734375 L 2.546875 0 Z M 1.453125 0 "/></g></g><g style="fill:#242424;fill-opacity:1;"><g transform="translate(159.791793, 239.372364)"><path style="stroke:none" d="M 4.359375 0 C 3.828125 0 3.335938 -0.128906 2.890625 -0.390625 C 2.453125 -0.660156 2.101562 -1.015625 1.84375 -1.453125 C 1.582031 -1.898438 1.453125 -2.390625 1.453125 -2.921875 L 1.453125 -6.421875 C 1.453125 -6.953125 1.582031 -7.4375 1.84375 -7.875 C 2.101562 -8.320312 2.453125 -8.675781 2.890625 -8.9375 C 3.335938 -9.195312 3.828125 -9.328125 4.359375 -9.328125 L 5.8125 -9.328125 C 6.363281 -9.328125 6.859375 -9.195312 7.296875 -8.9375 C 7.734375 -8.675781 8.082031 -8.328125 8.34375 -7.890625 C 8.601562 -7.453125 8.734375 -6.960938 8.734375 -6.421875 L 8.734375 -4.796875 L 2.546875 -4.796875 L 2.546875 -2.921875 C 2.546875 -2.429688 2.722656 -2.003906 3.078125 -1.640625 C 3.441406 -1.285156 3.867188 -1.109375 4.359375 -1.109375 L 5.8125 -1.109375 C 6.3125 -1.109375 6.738281 -1.285156 7.09375 -1.640625 C 7.457031 -2.003906 7.640625 -2.429688 7.640625 -2.921875 L 7.640625 -3.234375 L 8.734375 -3.234375 L 8.734375 -2.921875 C 8.734375 -2.390625 8.601562 -1.898438 8.34375 -1.453125 C 8.082031 -1.003906 7.726562 -0.648438 7.28125 -0.390625 C 6.84375 -0.128906 6.351562 0 5.8125 0 Z M 2.546875 -5.40625 L 7.640625 -5.40625 L 7.640625 -6.421875 C 7.640625 -6.929688 7.460938 -7.359375 7.109375 -7.703125 C 6.753906 -8.054688 6.320312 -8.234375 5.8125 -8.234375 L 4.359375 -8.234375 C 3.847656 -8.234375 3.414062 -8.054688 3.0625 -7.703125 C 2.71875 -7.359375 2.546875 -6.929688 2.546875 -6.421875 Z M 2.546875 -5.40625 "/></g></g><g style="fill:#242424;fill-opacity:1;"><g transform="translate(169.97591, 239.372364)"><path style="stroke:none" d="M 1.453125 0 L 1.453125 -9.328125 L 2.546875 -9.328125 L 2.546875 -7.5625 L 5.1875 -9.328125 L 5.8125 -9.328125 C 6.351562 -9.328125 6.84375 -9.195312 7.28125 -8.9375 C 7.726562 -8.675781 8.082031 -8.320312 8.34375 -7.875 C 8.601562 -7.4375 8.734375 -6.953125 8.734375 -6.421875 L 8.734375 -5.875 L 7.640625 -5.875 L 7.640625 -6.421875 C 7.640625 -6.921875 7.457031 -7.347656 7.09375 -7.703125 C 6.738281 -8.054688 6.3125 -8.234375 5.8125 -8.234375 L 5.53125 -8.234375 L 2.546875 -6.25 L 2.546875 0 Z M 1.453125 0 "/></g></g><g style="fill:#242424;fill-opacity:1;"><g transform="translate(180.160028, 239.372364)"><path style="stroke:none" d="M 4.296875 0 C 3.785156 0 3.3125 -0.101562 2.875 -0.3125 C 2.445312 -0.53125 2.101562 -0.8125 1.84375 -1.15625 C 1.582031 -1.507812 1.453125 -1.898438 1.453125 -2.328125 L 1.453125 -3 L 2.546875 -3 L 2.546875 -2.328125 C 2.546875 -2.003906 2.710938 -1.71875 3.046875 -1.46875 C 3.390625 -1.21875 3.804688 -1.09375 4.296875 -1.09375 L 5.953125 -1.09375 C 6.484375 -1.09375 6.894531 -1.207031 7.1875 -1.4375 C 7.488281 -1.664062 7.640625 -2.003906 7.640625 -2.453125 C 7.640625 -2.867188 7.53125 -3.195312 7.3125 -3.4375 C 7.09375 -3.675781 6.800781 -3.863281 6.4375 -4 C 6.082031 -4.132812 5.691406 -4.242188 5.265625 -4.328125 C 4.835938 -4.410156 4.410156 -4.503906 3.984375 -4.609375 C 3.554688 -4.710938 3.164062 -4.851562 2.8125 -5.03125 C 2.457031 -5.207031 2.171875 -5.453125 1.953125 -5.765625 C 1.734375 -6.078125 1.625 -6.488281 1.625 -7 C 1.625 -7.707031 1.875 -8.269531 2.375 -8.6875 C 2.882812 -9.113281 3.546875 -9.328125 4.359375 -9.328125 L 5.703125 -9.328125 C 6.203125 -9.328125 6.648438 -9.21875 7.046875 -9 C 7.453125 -8.789062 7.773438 -8.507812 8.015625 -8.15625 C 8.265625 -7.8125 8.390625 -7.421875 8.390625 -6.984375 L 8.390625 -6.578125 L 7.296875 -6.578125 L 7.296875 -6.984375 C 7.296875 -7.335938 7.144531 -7.632812 6.84375 -7.875 C 6.539062 -8.113281 6.160156 -8.234375 5.703125 -8.234375 L 4.359375 -8.234375 C 3.835938 -8.234375 3.429688 -8.113281 3.140625 -7.875 C 2.847656 -7.644531 2.703125 -7.335938 2.703125 -6.953125 C 2.703125 -6.617188 2.8125 -6.359375 3.03125 -6.171875 C 3.25 -5.984375 3.535156 -5.84375 3.890625 -5.75 C 4.253906 -5.65625 4.648438 -5.566406 5.078125 -5.484375 C 5.515625 -5.398438 5.941406 -5.300781 6.359375 -5.1875 C 6.785156 -5.082031 7.175781 -4.925781 7.53125 -4.71875 C 7.894531 -4.507812 8.1875 -4.222656 8.40625 -3.859375 C 8.625 -3.492188 8.734375 -3.019531 8.734375 -2.4375 C 8.734375 -1.695312 8.484375 -1.101562 7.984375 -0.65625 C 7.484375 -0.21875 6.804688 0 5.953125 0 Z M 4.296875 0 "/></g></g><g style="fill:#242424;fill-opacity:1;"><g transform="translate(190.344145, 239.372364)"><path style="stroke:none" d=""/></g></g><g style="fill:#242424;fill-opacity:1;"><g transform="translate(200.528262, 239.372364)"><path style="stroke:none" d="M 4.46875 0 C 3.925781 0 3.425781 -0.132812 2.96875 -0.40625 C 2.507812 -0.675781 2.140625 -1.039062 1.859375 -1.5 C 1.585938 -1.957031 1.453125 -2.460938 1.453125 -3.015625 L 1.453125 -3.796875 L 2.546875 -3.796875 L 2.546875 -3.015625 C 2.546875 -2.484375 2.734375 -2.03125 3.109375 -1.65625 C 3.484375 -1.28125 3.9375 -1.09375 4.46875 -1.09375 L 5.6875 -1.09375 C 6.257812 -1.09375 6.726562 -1.257812 7.09375 -1.59375 C 7.457031 -1.925781 7.640625 -2.34375 7.640625 -2.84375 C 7.640625 -3.3125 7.492188 -3.742188 7.203125 -4.140625 C 6.910156 -4.535156 6.535156 -4.90625 6.078125 -5.25 C 5.628906 -5.601562 5.148438 -5.957031 4.640625 -6.3125 C 4.128906 -6.664062 3.644531 -7.03125 3.1875 -7.40625 C 2.738281 -7.78125 2.367188 -8.1875 2.078125 -8.625 C 1.785156 -9.0625 1.640625 -9.546875 1.640625 -10.078125 C 1.640625 -10.867188 1.921875 -11.507812 2.484375 -12 C 3.046875 -12.488281 3.769531 -12.734375 4.65625 -12.734375 L 5.515625 -12.734375 C 6.066406 -12.734375 6.570312 -12.59375 7.03125 -12.3125 C 7.5 -12.039062 7.867188 -11.675781 8.140625 -11.21875 C 8.410156 -10.769531 8.546875 -10.269531 8.546875 -9.71875 L 8.546875 -9.21875 L 7.453125 -9.21875 L 7.453125 -9.71875 C 7.453125 -10.25 7.257812 -10.703125 6.875 -11.078125 C 6.5 -11.453125 6.046875 -11.640625 5.515625 -11.640625 L 4.65625 -11.640625 C 4.0625 -11.640625 3.59375 -11.492188 3.25 -11.203125 C 2.90625 -10.921875 2.734375 -10.546875 2.734375 -10.078125 C 2.734375 -9.710938 2.875 -9.359375 3.15625 -9.015625 C 3.445312 -8.679688 3.820312 -8.347656 4.28125 -8.015625 C 4.738281 -7.679688 5.222656 -7.332031 5.734375 -6.96875 C 6.242188 -6.613281 6.722656 -6.226562 7.171875 -5.8125 C 7.628906 -5.40625 8.003906 -4.957031 8.296875 -4.46875 C 8.585938 -3.976562 8.734375 -3.4375 8.734375 -2.84375 C 8.734375 -2.300781 8.597656 -1.816406 8.328125 -1.390625 C 8.066406 -0.960938 7.707031 -0.625 7.25 -0.375 C 6.789062 -0.125 6.269531 0 5.6875 0 Z M 4.46875 0 "/></g></g><g style="fill:#242424;fill-opacity:1;"><g transform="translate(210.712379, 239.372364)"><path style="stroke:none" d="M 4.359375 0 C 3.828125 0 3.335938 -0.128906 2.890625 -0.390625 C 2.453125 -0.660156 2.101562 -1.015625 1.84375 -1.453125 C 1.582031 -1.898438 1.453125 -2.390625 1.453125 -2.921875 L 1.453125 -6.421875 C 1.453125 -6.953125 1.582031 -7.4375 1.84375 -7.875 C 2.101562 -8.320312 2.453125 -8.675781 2.890625 -8.9375 C 3.335938 -9.195312 3.828125 -9.328125 4.359375 -9.328125 L 5.8125 -9.328125 C 6.363281 -9.328125 6.859375 -9.195312 7.296875 -8.9375 C 7.734375 -8.675781 8.082031 -8.328125 8.34375 -7.890625 C 8.601562 -7.453125 8.734375 -6.960938 8.734375 -6.421875 L 8.734375 -4.796875 L 2.546875 -4.796875 L 2.546875 -2.921875 C 2.546875 -2.429688 2.722656 -2.003906 3.078125 -1.640625 C 3.441406 -1.285156 3.867188 -1.109375 4.359375 -1.109375 L 5.8125 -1.109375 C 6.3125 -1.109375 6.738281 -1.285156 7.09375 -1.640625 C 7.457031 -2.003906 7.640625 -2.429688 7.640625 -2.921875 L 7.640625 -3.234375 L 8.734375 -3.234375 L 8.734375 -2.921875 C 8.734375 -2.390625 8.601562 -1.898438 8.34375 -1.453125 C 8.082031 -1.003906 7.726562 -0.648438 7.28125 -0.390625 C 6.84375 -0.128906 6.351562 0 5.8125 0 Z M 2.546875 -5.40625 L 7.640625 -5.40625 L 7.640625 -6.421875 C 7.640625 -6.929688 7.460938 -7.359375 7.109375 -7.703125 C 6.753906 -8.054688 6.320312 -8.234375 5.8125 -8.234375 L 4.359375 -8.234375 C 3.847656 -8.234375 3.414062 -8.054688 3.0625 -7.703125 C 2.71875 -7.359375 2.546875 -6.929688 2.546875 -6.421875 Z M 2.546875 -5.40625 "/></g></g><g style="fill:#242424;fill-opacity:1;"><g transform="translate(220.896497, 239.372364)"><path style="stroke:none" d="M 1.453125 0 L 1.453125 -9.328125 L 2.546875 -9.328125 L 2.546875 -7.5625 L 5.1875 -9.328125 L 5.8125 -9.328125 C 6.351562 -9.328125 6.84375 -9.195312 7.28125 -8.9375 C 7.726562 -8.675781 8.082031 -8.320312 8.34375 -7.875 C 8.601562 -7.4375 8.734375 -6.953125 8.734375 -6.421875 L 8.734375 -5.875 L 7.640625 -5.875 L 7.640625 -6.421875 C 7.640625 -6.921875 7.457031 -7.347656 7.09375 -7.703125 C 6.738281 -8.054688 6.3125 -8.234375 5.8125 -8.234375 L 5.53125 -8.234375 L 2.546875 -6.25 L 2.546875 0 Z M 1.453125 0 "/></g></g><g style="fill:#242424;fill-opacity:1;"><g transform="translate(231.080614, 239.372364)"><path style="stroke:none" d="M 4.40625 0 L 1.453125 -5.3125 L 1.453125 -9.328125 L 2.546875 -9.328125 L 2.546875 -5.625 L 4.90625 -1.265625 L 5.28125 -1.265625 L 7.640625 -5.625 L 7.640625 -9.328125 L 8.734375 -9.328125 L 8.734375 -5.3125 L 5.78125 0 Z M 4.40625 0 "/></g></g><g style="fill:#242424;fill-opacity:1;"><g transform="translate(241.264731, 239.372364)"><path style="stroke:none" d="M 4.09375 -11.21875 L 4.09375 -12.546875 L 5.546875 -12.546875 L 5.546875 -11.21875 Z M 1.453125 0 L 1.453125 -1.09375 L 4.453125 -1.09375 L 4.453125 -8.234375 L 1.453125 -8.234375 L 1.453125 -9.328125 L 5.546875 -9.328125 L 5.546875 -1.09375 L 8.734375 -1.09375 L 8.734375 0 Z M 1.453125 0 "/></g></g><g style="fill:#242424;fill-opacity:1;"><g transform="translate(251.448848, 239.372364)"><path style="stroke:none" d="M 4.359375 0 C 3.828125 0 3.335938 -0.128906 2.890625 -0.390625 C 2.453125 -0.660156 2.101562 -1.015625 1.84375 -1.453125 C 1.582031 -1.898438 1.453125 -2.390625 1.453125 -2.921875 L 1.453125 -6.421875 C 1.453125 -6.953125 1.582031 -7.4375 1.84375 -7.875 C 2.101562 -8.320312 2.453125 -8.675781 2.890625 -8.9375 C 3.335938 -9.195312 3.828125 -9.328125 4.359375 -9.328125 L 5.8125 -9.328125 C 6.363281 -9.328125 6.859375 -9.195312 7.296875 -8.9375 C 7.734375 -8.675781 8.082031 -8.328125 8.34375 -7.890625 C 8.601562 -7.453125 8.734375 -6.960938 8.734375 -6.421875 L 8.734375 -6.125 L 7.640625 -6.125 L 7.640625 -6.421875 C 7.640625 -6.929688 7.460938 -7.359375 7.109375 -7.703125 C 6.753906 -8.054688 6.320312 -8.234375 5.8125 -8.234375 L 4.359375 -8.234375 C 3.847656 -8.234375 3.414062 -8.054688 3.0625 -7.703125 C 2.71875 -7.359375 2.546875 -6.929688 2.546875 -6.421875 L 2.546875 -2.921875 C 2.546875 -2.429688 2.722656 -2.003906 3.078125 -1.640625 C 3.441406 -1.285156 3.867188 -1.109375 4.359375 -1.109375 L 5.8125 -1.109375 C 6.3125 -1.109375 6.738281 -1.285156 7.09375 -1.640625 C 7.457031 -2.003906 7.640625 -2.429688 7.640625 -2.921875 L 7.640625 -3.234375 L 8.734375 -3.234375 L 8.734375 -2.921875 C 8.734375 -2.390625 8.601562 -1.898438 8.34375 -1.453125 C 8.082031 -1.003906 7.726562 -0.648438 7.28125 -0.390625 C 6.84375 -0.128906 6.351562 0 5.8125 0 Z M 4.359375 0 "/></g></g><g style="fill:#242424;fill-opacity:1;"><g transform="translate(261.632966, 239.372364)"><path style="stroke:none" d="M 4.359375 0 C 3.828125 0 3.335938 -0.128906 2.890625 -0.390625 C 2.453125 -0.660156 2.101562 -1.015625 1.84375 -1.453125 C 1.582031 -1.898438 1.453125 -2.390625 1.453125 -2.921875 L 1.453125 -6.421875 C 1.453125 -6.953125 1.582031 -7.4375 1.84375 -7.875 C 2.101562 -8.320312 2.453125 -8.675781 2.890625 -8.9375 C 3.335938 -9.195312 3.828125 -9.328125 4.359375 -9.328125 L 5.8125 -9.328125 C 6.363281 -9.328125 6.859375 -9.195312 7.296875 -8.9375 C 7.734375 -8.675781 8.082031 -8.328125 8.34375 -7.890625 C 8.601562 -7.453125 8.734375 -6.960938 8.734375 -6.421875 L 8.734375 -4.796875 L 2.546875 -4.796875 L 2.546875 -2.921875 C 2.546875 -2.429688 2.722656 -2.003906 3.078125 -1.640625 C 3.441406 -1.285156 3.867188 -1.109375 4.359375 -1.109375 L 5.8125 -1.109375 C 6.3125 -1.109375 6.738281 -1.285156 7.09375 -1.640625 C 7.457031 -2.003906 7.640625 -2.429688 7.640625 -2.921875 L 7.640625 -3.234375 L 8.734375 -3.234375 L 8.734375 -2.921875 C 8.734375 -2.390625 8.601562 -1.898438 8.34375 -1.453125 C 8.082031 -1.003906 7.726562 -0.648438 7.28125 -0.390625 C 6.84375 -0.128906 6.351562 0 5.8125 0 Z M 2.546875 -5.40625 L 7.640625 -5.40625 L 7.640625 -6.421875 C 7.640625 -6.929688 7.460938 -7.359375 7.109375 -7.703125 C 6.753906 -8.054688 6.320312 -8.234375 5.8125 -8.234375 L 4.359375 -8.234375 C 3.847656 -8.234375 3.414062 -8.054688 3.0625 -7.703125 C 2.71875 -7.359375 2.546875 -6.929688 2.546875 -6.421875 Z M 2.546875 -5.40625 "/></g></g><g style="fill:#242424;fill-opacity:1;"><g transform="translate(271.817083, 239.372364)"><path style="stroke:none" d="M 4.296875 0 C 3.785156 0 3.3125 -0.101562 2.875 -0.3125 C 2.445312 -0.53125 2.101562 -0.8125 1.84375 -1.15625 C 1.582031 -1.507812 1.453125 -1.898438 1.453125 -2.328125 L 1.453125 -3 L 2.546875 -3 L 2.546875 -2.328125 C 2.546875 -2.003906 2.710938 -1.71875 3.046875 -1.46875 C 3.390625 -1.21875 3.804688 -1.09375 4.296875 -1.09375 L 5.953125 -1.09375 C 6.484375 -1.09375 6.894531 -1.207031 7.1875 -1.4375 C 7.488281 -1.664062 7.640625 -2.003906 7.640625 -2.453125 C 7.640625 -2.867188 7.53125 -3.195312 7.3125 -3.4375 C 7.09375 -3.675781 6.800781 -3.863281 6.4375 -4 C 6.082031 -4.132812 5.691406 -4.242188 5.265625 -4.328125 C 4.835938 -4.410156 4.410156 -4.503906 3.984375 -4.609375 C 3.554688 -4.710938 3.164062 -4.851562 2.8125 -5.03125 C 2.457031 -5.207031 2.171875 -5.453125 1.953125 -5.765625 C 1.734375 -6.078125 1.625 -6.488281 1.625 -7 C 1.625 -7.707031 1.875 -8.269531 2.375 -8.6875 C 2.882812 -9.113281 3.546875 -9.328125 4.359375 -9.328125 L 5.703125 -9.328125 C 6.203125 -9.328125 6.648438 -9.21875 7.046875 -9 C 7.453125 -8.789062 7.773438 -8.507812 8.015625 -8.15625 C 8.265625 -7.8125 8.390625 -7.421875 8.390625 -6.984375 L 8.390625 -6.578125 L 7.296875 -6.578125 L 7.296875 -6.984375 C 7.296875 -7.335938 7.144531 -7.632812 6.84375 -7.875 C 6.539062 -8.113281 6.160156 -8.234375 5.703125 -8.234375 L 4.359375 -8.234375 C 3.835938 -8.234375 3.429688 -8.113281 3.140625 -7.875 C 2.847656 -7.644531 2.703125 -7.335938 2.703125 -6.953125 C 2.703125 -6.617188 2.8125 -6.359375 3.03125 -6.171875 C 3.25 -5.984375 3.535156 -5.84375 3.890625 -5.75 C 4.253906 -5.65625 4.648438 -5.566406 5.078125 -5.484375 C 5.515625 -5.398438 5.941406 -5.300781 6.359375 -5.1875 C 6.785156 -5.082031 7.175781 -4.925781 7.53125 -4.71875 C 7.894531 -4.507812 8.1875 -4.222656 8.40625 -3.859375 C 8.625 -3.492188 8.734375 -3.019531 8.734375 -2.4375 C 8.734375 -1.695312 8.484375 -1.101562 7.984375 -0.65625 C 7.484375 -0.21875 6.804688 0 5.953125 0 Z M 4.296875 0 "/></g></g></g></svg>